<svg width="122" height="55" viewBox="0 0 122 55" fill="none" xmlns="http://www.w3.org/2000/svg">
<path d="M0.790039 35.5004C0.790039 35.1404 0.790039 34.9103 0.790039 34.6703C0.790039 26.4603 0.790039 18.3803 0.790039 10.1703C0.790039 9.58034 0.910061 9.3405 1.50006 9.3405C10.6601 8.0305 19.7 6.84044 28.86 5.53044C37.66 4.34044 46.3401 3.0305 55.1501 1.8405C57.1701 1.6005 59.19 1.25042 61.22 1.01042C62.17 0.890424 63.1201 1.13053 63.9601 1.37053C69.5501 2.20053 75.0201 2.92041 80.61 3.75041C85.84 4.46041 91.0801 5.30042 96.3101 6.01042C101.07 6.72042 105.83 7.32044 110.58 8.03044C113.91 8.51044 117.36 8.98038 120.69 9.46038C121.17 9.58038 121.17 9.82046 121.17 10.0505C121.17 17.7805 121.17 25.5105 121.17 33.3605C121.17 33.9505 121.17 34.4304 121.17 35.0304C121.17 35.5104 121.05 35.6205 120.58 35.6205C118.44 35.8605 116.18 36.2104 114.04 36.4504C109.76 36.9304 105.48 37.5204 101.19 38.0004C97.1501 38.4804 93.1001 38.9505 89.0601 39.5505C84.5401 40.1405 79.9001 40.7404 75.3801 41.2204C70.8601 41.8104 66.3401 42.4103 61.8201 42.8903C60.9901 43.0103 60.1501 42.7703 59.3201 42.6503C53.9701 42.0603 48.5001 41.3403 43.1401 40.6303C37.3101 39.9203 31.6001 39.2004 25.7801 38.4904C20.1901 37.7804 14.6001 37.1804 9.01007 36.4704C6.26007 36.2104 3.52004 35.8504 0.790039 35.5004ZM119.61 33.5905C119.61 33.3505 119.61 33.2304 119.61 33.0004C119.61 25.7404 119.61 18.3705 119.61 11.1205C119.61 10.7605 119.49 10.6404 119.13 10.5304C118.18 10.4104 117.23 10.2903 116.28 10.1703C111.05 9.46034 105.69 8.74044 100.46 8.03044C96.0601 7.44044 91.5401 6.84042 87.1401 6.25041C82.9801 5.66041 78.7001 5.06049 74.5301 4.58049C71.0801 4.10049 67.6301 3.63032 64.1801 3.15032C63.1101 3.03032 62.04 2.67045 60.97 2.79045C54.9 3.50045 48.7201 4.34034 42.6501 5.17034C36.4701 6.00034 30.2801 6.84034 24.2101 7.67034C16.9501 8.62034 9.82006 9.57043 2.56006 10.5204C2.20006 10.5204 1.97003 10.6405 1.97003 11.1105C1.97003 18.6005 1.97003 26.1004 1.97003 33.7104C1.97003 34.0704 2.09007 34.3005 2.45007 34.3005C4.00007 34.4205 5.54009 34.6603 7.09009 34.8903C12.4401 35.4803 17.6801 36.2005 23.0301 36.7905C29.2101 37.5005 35.5201 38.3405 41.7001 39.0505C47.4101 39.7605 53.1201 40.4805 58.8301 41.0705C59.7801 41.1905 60.7301 41.4305 61.6801 41.3105C67.0301 40.6005 72.5 39.8803 77.86 39.1703C83.33 38.4603 88.8001 37.7404 94.3901 37.0304C100.57 36.2004 106.64 35.3603 112.83 34.6503C115.09 34.3103 117.35 33.9505 119.61 33.5905Z" fill="white"/>
<path d="M56.6899 48.7002C56.8099 48.7002 56.8099 48.7002 56.9299 48.7002C57.8799 48.7002 57.8799 48.7003 58.1199 49.5303C58.3599 50.3603 58.6 51.2002 58.95 51.9102C58.95 50.8402 58.95 49.7702 58.95 48.7002C59.31 48.7002 59.54 48.7002 59.78 48.7002C59.78 50.7202 59.78 52.6301 59.78 54.6501C58.83 54.7701 58.83 54.7703 58.59 54.0603C58.23 52.9903 58 51.9202 57.52 50.7302C57.52 52.0402 57.52 53.3502 57.52 54.6602C57.28 54.6602 56.9299 54.6602 56.6899 54.6602C56.6899 52.7402 56.6899 50.7202 56.6899 48.7002Z" fill="white"/>
<path d="M86.9001 54.7708C86.5401 54.7708 86.3101 54.7708 85.9501 54.7708C85.7101 54.0608 85.59 53.4607 85.36 52.7507C85.12 52.0407 85.0001 51.4407 84.6501 50.7307C84.6501 52.0407 84.6501 53.3506 84.6501 54.6606C84.2901 54.6606 84.0601 54.6606 83.8201 54.6606C83.8201 52.6406 83.8201 50.6208 83.8201 48.5908C84.0601 48.5908 84.3001 48.5908 84.5301 48.5908C84.8901 48.5908 85.0101 48.7108 85.1201 49.0708C85.3601 49.9008 85.6001 50.6207 85.7101 51.4507C85.7101 51.5707 85.8301 51.8107 85.9501 51.9307C85.9501 50.8607 85.9501 49.7907 85.9501 48.7207C86.3101 48.7207 86.4301 48.7207 86.7801 48.7207C86.9001 50.7207 86.9001 52.7408 86.9001 54.7708Z" fill="white"/>
<path d="M70.3701 51.6699C70.3701 52.2599 70.3701 52.7401 70.3701 53.3401C70.3701 54.2901 69.7801 54.77 68.8201 54.77C67.8701 54.77 67.3901 54.2901 67.3901 53.3401C67.3901 52.2701 67.3901 51.2 67.3901 50.01C67.3901 49.06 67.9801 48.5801 68.9401 48.5801C69.9001 48.5801 70.3701 49.06 70.3701 50.01C70.3701 50.6 70.3701 51.1999 70.3701 51.6699ZM69.4101 51.6699C69.4101 51.1899 69.4101 50.6001 69.4101 50.1201C69.4101 49.7601 69.4101 49.4099 68.9301 49.4099C68.4501 49.4099 68.4501 49.7701 68.4501 50.1201C68.4501 51.1901 68.4501 52.2601 68.4501 53.3301C68.4501 53.6901 68.5701 53.9199 68.9301 53.9199C69.2901 53.9199 69.4101 53.6801 69.4101 53.3301C69.4101 52.7401 69.4101 52.2699 69.4101 51.6699Z" fill="white"/>
<path d="M49.31 54.6499C48.95 54.6499 48.72 54.6499 48.24 54.6499C48.24 54.0599 48.24 53.58 48.24 52.98C48.24 52.27 48 52.15 47.17 52.27C47.17 53.1 47.17 53.8199 47.17 54.6499C46.81 54.6499 46.58 54.6499 46.22 54.6499C46.22 52.6299 46.22 50.7201 46.22 48.5801C46.93 48.5801 47.65 48.58 48.36 48.7C48.6 48.7 48.84 48.9399 48.95 49.1799C49.31 49.8899 49.07 51.0799 48.59 51.6799C49.55 52.5099 48.96 53.6999 49.31 54.6499ZM47.17 51.4399C47.53 51.3199 48 51.3201 48 51.0801C48.12 50.6001 48.12 50.1299 48 49.6499C48 49.5299 47.52 49.5299 47.17 49.4099C47.17 50.1299 47.17 50.7199 47.17 51.4399Z" fill="white"/>
<path d="M80 54.7703C80.12 54.0603 80.24 53.4604 80.24 52.8704C80.48 51.6804 80.72 50.3702 80.83 49.1802C80.83 48.8202 81.07 48.7002 81.42 48.7002C81.66 48.7002 81.78 48.7002 82.01 48.7002C82.13 48.7002 82.37 48.8202 82.37 48.9402C82.73 50.8402 82.96 52.7501 83.32 54.6501C82.96 54.6501 82.73 54.6501 82.37 54.6501C82.25 54.2901 82.25 53.9403 82.13 53.5803C82.01 53.5803 81.89 53.5803 81.77 53.5803C81.18 53.4603 80.82 53.7003 80.82 54.2903C80.83 55.0003 80.36 54.6503 80 54.7703ZM81.67 50.0103C81.43 50.9603 81.31 51.7902 81.19 52.7502C81.55 52.7502 81.78 52.7502 82.14 52.7502C81.9 51.7902 81.78 50.9603 81.67 50.0103Z" fill="white"/>
<path d="M63.59 54.6502C63.23 54.6502 63 54.6502 62.76 54.6502C62.64 54.2902 62.64 53.8204 62.4 53.5804C62.16 53.4604 61.69 53.5804 61.33 53.5804C60.97 54.7704 60.97 54.7702 60.26 54.6502C60.38 53.9402 60.5 53.3402 60.62 52.6302C60.86 51.4402 60.98 50.2504 61.21 49.0604C61.21 48.7004 61.33 48.5804 61.69 48.5804C62.88 48.5804 62.64 48.3403 62.88 49.5303C63.12 50.9603 63.36 52.3804 63.59 53.8104C63.47 54.1704 63.47 54.4102 63.59 54.6502ZM62.28 52.8604C62.16 51.9104 61.92 50.9604 61.8 50.1204H61.68C61.56 51.0704 61.44 51.9004 61.32 52.8604C61.68 52.8604 61.92 52.8604 62.28 52.8604Z" fill="white"/>
<path d="M90.8201 54.6499C90.4601 54.6499 90.2301 54.6499 89.8701 54.6499C89.5101 53.4599 89.5101 53.4601 88.4401 53.5801C88.2001 54.0601 88.5601 54.89 87.3701 54.53C87.4901 53.7 87.6101 52.86 87.7301 52.03C87.8501 51.08 88.0901 50.0101 88.2101 49.0601C88.2101 48.7001 88.4501 48.5801 88.8001 48.5801C88.9201 48.5801 89.1602 48.5801 89.2802 48.5801C89.6402 48.5801 89.7601 48.7001 89.7601 49.0601C90.2301 50.9601 90.4701 52.7399 90.8201 54.6499ZM89.5101 52.74C89.3901 51.79 89.2701 50.96 89.1501 50H89.0302C88.9102 50.83 88.7901 51.78 88.6701 52.74C88.9201 52.74 89.1601 52.74 89.5101 52.74Z" fill="white"/>
<path d="M54.6701 54.6505C54.3101 54.6505 54.0801 54.6505 53.8401 54.6505C53.7201 54.2905 53.7201 53.9406 53.4801 53.5806C53.3601 53.4606 53.0001 53.4606 52.6501 53.5806C51.9401 53.5806 52.4101 54.2905 52.0601 54.6505C51.9401 54.6505 51.7001 54.6505 51.3501 54.6505C51.4701 54.0605 51.4701 53.5805 51.5901 52.9805C51.8301 51.6705 52.0701 50.3606 52.1801 49.0506C52.1801 48.6906 52.4201 48.5706 52.6601 48.5706C53.7301 48.5706 53.6101 48.3306 53.7301 49.5206C53.9701 51.0706 54.2101 52.6106 54.5601 54.2806C54.6701 54.4106 54.6701 54.5305 54.6701 54.6505ZM53.0001 50.1304C52.7601 50.9604 52.6401 51.9107 52.5201 52.8707C52.8801 52.8707 53.1101 52.8707 53.4701 52.8707C53.3601 51.9107 53.1201 50.9604 53.0001 50.1304Z" fill="white"/>
<path d="M64.0601 48.7002C64.6501 48.7002 65.2501 48.7002 65.8401 48.7002C66.4301 48.7002 66.79 49.1803 66.91 49.7703C66.91 50.1303 66.91 50.6003 66.91 51.0803C66.91 52.0303 66.43 52.5103 65.48 52.5103C65.36 52.5103 65.2401 52.5103 65.0001 52.5103C65.0001 53.2203 65.0001 53.9403 65.0001 54.7703C64.6401 54.7703 64.41 54.7703 64.05 54.7703C64.06 52.7403 64.0601 50.7202 64.0601 48.7002ZM65.0101 51.5503C65.3701 51.5503 65.8401 51.6703 65.9601 51.3103C66.0801 50.8303 66.0801 50.3601 65.9601 49.8801C65.9601 49.7601 65.6001 49.6403 65.3701 49.5203C65.2501 49.5203 65.0101 49.6403 65.0101 49.7603C65.0101 50.3703 65.0101 50.9603 65.0101 51.5503Z" fill="white"/>
<path d="M31.24 48.7002C31.83 48.7002 32.43 48.7002 33.02 48.7002C33.61 48.7002 33.97 49.1801 33.97 49.6501C33.97 50.2401 33.97 50.8403 33.97 51.3203C33.85 51.9103 33.49 52.2701 32.9 52.3901C32.66 52.3901 32.42 52.3901 32.19 52.3901C32.19 53.1001 32.19 53.8201 32.19 54.6501C31.83 54.6501 31.6 54.6501 31.24 54.6501C31.24 52.7401 31.24 50.7202 31.24 48.7002ZM32.19 51.5503C33.02 51.6703 33.14 51.5502 33.14 50.7202C33.14 50.6002 33.14 50.3602 33.14 50.2402C33.14 49.5302 33.02 49.4103 32.19 49.5303C32.19 50.2503 32.19 50.8403 32.19 51.5503Z" fill="white"/>
<path d="M74.05 48.7002C74.88 48.7002 75.72 48.7002 76.67 48.7002C76.67 48.9402 76.67 49.1803 76.67 49.5303C76.19 49.5303 75.84 49.5303 75.48 49.5303C75.12 49.5303 75.0001 49.6501 75.1201 49.8901C75.1201 50.2501 75.1201 50.7202 75.1201 51.2002C75.6001 51.2002 75.9501 51.2002 76.4301 51.2002C76.4301 51.5602 76.4301 51.6803 76.4301 52.0303C75.9501 52.0303 75.6001 52.0303 75.1201 52.0303C75.1201 52.6203 75.1201 53.2203 75.1201 53.8103C75.7101 53.8103 76.19 53.8103 76.79 53.8103C76.79 54.1703 76.79 54.4001 76.79 54.6401C75.96 54.6401 75.12 54.6401 74.17 54.6401C74.05 52.7401 74.05 50.7202 74.05 48.7002Z" fill="white"/>
<path d="M45.63 48.7002C45.63 49.0602 45.63 49.1803 45.63 49.5303C45.04 49.5303 44.56 49.5303 43.96 49.5303C43.96 50.1203 43.96 50.7203 43.96 51.3103C44.32 51.3103 44.79 51.3103 45.27 51.3103C45.27 51.6703 45.27 51.9001 45.27 52.1401C44.79 52.1401 44.44 52.1401 43.96 52.1401C43.96 52.7301 43.96 53.3302 43.96 53.9202C44.55 53.9202 45.03 53.9202 45.63 53.9202C45.63 54.1602 45.63 54.5102 45.63 54.7502C44.8 54.7502 43.96 54.7502 43.01 54.7502C43.01 54.3902 43.01 54.0403 43.01 53.8003C43.01 52.2503 43.01 50.7103 43.01 49.2803C43.01 48.9203 43.13 48.8003 43.49 48.8003C44.08 48.7003 44.79 48.7002 45.63 48.7002Z" fill="white"/>
<path d="M37.1801 53.9304C37.7701 53.9304 38.3701 53.9304 38.9601 53.9304C38.9601 54.1704 38.9601 54.4105 38.9601 54.7605C38.0101 54.7605 37.1801 54.7605 36.1101 54.7605C36.2301 54.2805 36.2301 53.9304 36.3501 53.4504C36.8301 52.2604 37.3002 51.1905 37.7802 50.0005C37.7802 49.8805 37.9001 49.7605 37.9001 49.5205C37.3101 49.5205 36.8301 49.5205 36.3501 49.5205C36.1101 48.8105 36.1101 48.6904 36.8301 48.6904C37.5401 48.6904 38.2601 48.6904 38.9701 48.6904C38.8501 49.1704 38.8501 49.5204 38.7301 49.8804C38.2501 51.0704 37.7801 52.2606 37.3001 53.3306C37.3001 53.4606 37.3001 53.7004 37.1801 53.9304Z" fill="white"/>
<path d="M42.3002 53.9302C42.3002 54.2902 42.3002 54.5203 42.3002 54.7603C41.3502 54.7603 40.5202 54.7603 39.4502 54.7603C39.5702 54.4003 39.5702 53.9303 39.6902 53.5703C40.1702 52.3803 40.6402 51.3102 41.1202 50.2402C41.2402 50.1202 41.2402 49.8801 41.3602 49.6501C40.7702 49.6501 40.2902 49.6501 39.6902 49.6501C39.6902 49.4101 39.6902 49.1703 39.6902 48.8203C40.5202 48.8203 41.4702 48.8203 42.4302 48.8203C42.3102 49.3003 42.3102 49.6503 42.1902 50.0103C41.7102 51.2003 41.2402 52.3903 40.6402 53.5803C40.6402 53.7003 40.5202 53.8202 40.5202 53.9402C41.1102 53.9302 41.7002 53.9302 42.3002 53.9302Z" fill="white"/>
<path d="M80 48.7002C80 48.9402 80 49.1802 80 49.4102C79.64 49.4102 79.41 49.4102 79.05 49.4102C79.05 51.0802 79.05 52.8603 79.05 54.5203C78.69 54.5203 78.46 54.5203 78.1 54.5203C78.1 53.8103 78.1 53.2102 78.1 52.5002C78.1 51.6702 78.1 50.8304 78.1 50.1204C78.1 49.5304 77.98 49.2902 77.39 49.4102C77.27 49.4102 77.27 49.4102 77.03 49.4102C77.03 49.1702 77.03 48.9302 77.03 48.7002C78.1 48.7002 79.05 48.7002 80 48.7002Z" fill="white"/>
<path d="M71.9099 53.9304C72.4999 53.9304 72.98 53.9304 73.46 53.9304C73.46 54.1704 73.46 54.4105 73.46 54.7605C72.63 54.7605 71.79 54.7605 70.96 54.7605C70.96 52.7405 70.96 50.8305 70.96 48.8105C71.2 48.8105 71.5499 48.8105 71.7899 48.8105C71.9099 50.4805 71.9099 52.1504 71.9099 53.9304Z" fill="white"/>
<path d="M0.910156 51.6699C9.95016 51.6699 18.9902 51.6699 28.0302 51.6699V51.79C18.9802 51.67 9.95016 51.6699 0.910156 51.6699Z" fill="white"/>
<path d="M93.5601 51.6699C102.6 51.6699 111.64 51.6699 120.68 51.6699V51.79C111.64 51.79 102.6 51.7899 93.5601 51.6699Z" fill="white"/>
<path d="M50.7402 54.6501C50.3802 54.6501 50.1502 54.6501 49.9102 54.6501C49.9102 52.6301 49.9102 50.7202 49.9102 48.7002C50.1502 48.7002 50.5002 48.7002 50.7402 48.7002C50.7402 50.7202 50.7402 52.6201 50.7402 54.6501Z" fill="white"/>
<path d="M35.5201 54.6502C35.1601 54.6502 34.9301 54.6502 34.5701 54.6502C34.5701 52.6302 34.5701 50.7203 34.5701 48.7003C35.4001 48.4603 35.5201 48.5802 35.5201 49.4102C35.5201 51.2002 35.5201 52.8602 35.5201 54.6502Z" fill="white"/>
<path d="M2.57007 33.7106C2.57007 33.2306 2.57007 32.7606 2.57007 32.4006C2.57007 25.5006 2.57007 18.4807 2.57007 11.5907C2.57007 11.2307 2.69005 11.1108 3.05005 11.1108C7.81005 10.5208 12.5701 9.80062 17.3201 9.21062C21.1301 8.73062 24.8101 8.14057 28.6201 7.66057C32.5401 7.18057 36.4701 6.59077 40.5101 6.11077C45.6201 5.40077 50.74 4.68075 55.85 4.09075C57.63 3.85075 59.4201 3.50054 61.0801 3.38054C62.1501 3.26054 63.22 3.50065 64.29 3.74065C70.47 4.57065 76.66 5.41065 82.73 6.24065C89.63 7.19065 96.53 8.14075 103.54 9.09075C108.54 9.80075 113.53 10.4008 118.64 11.1108C119.12 11.1108 119.23 11.2307 119.23 11.8207C119.23 18.7207 119.23 25.7405 119.23 32.6305C119.23 33.1105 119.11 33.3407 118.64 33.3407C112.1 34.1707 105.56 35.1206 99.0201 35.9606C93.3101 36.6706 87.7201 37.5106 82.0101 38.2206C75.3501 39.0506 68.6901 40.0007 62.0301 40.8407C61.0801 40.9607 60.1301 40.7208 59.1801 40.6008C52.6401 39.7708 46.1 39.0506 39.67 38.2206C34.91 37.6306 30.2701 37.1507 25.5201 36.5507C20.2901 35.9607 14.9301 35.2406 9.70007 34.6506C7.68007 34.4106 5.54008 34.1706 3.52008 33.9406C3.05008 33.8306 2.81007 33.8306 2.57007 33.7106ZM118.54 11.5907C118.42 11.5907 118.3 11.5906 118.18 11.4706C114.97 10.9906 111.76 10.6406 108.55 10.1606C104.27 9.57057 100.11 9.09065 95.8201 8.49065C90.2301 7.78065 84.6401 6.94064 78.9301 6.23064C73.8201 5.52064 68.7 4.80062 63.47 4.21062C62.4 4.09062 61.3301 3.97075 60.3801 4.09075C57.1701 4.45075 54.08 4.92069 50.86 5.28069C46.82 5.76069 42.77 6.35074 38.73 6.83074C34.92 7.31074 31.1201 7.78054 27.3101 8.38054C23.5001 8.86054 19.7001 9.33072 15.8901 9.81072C12.3201 10.2907 8.87005 10.7606 5.30005 11.2406C4.47005 11.3606 3.63005 11.4808 2.80005 11.6008C2.80005 18.8608 2.80005 25.9907 2.80005 33.2507C3.04005 33.2507 3.16008 33.3708 3.39008 33.3708C6.24008 33.7308 9.10007 34.0806 11.9501 34.4406C17.1801 35.0306 22.4201 35.7507 27.6501 36.3407C33.4801 37.0507 39.3101 37.7706 45.0101 38.4806C49.5301 39.0706 53.9301 39.5506 58.4501 40.1506C59.2801 40.2706 60.2301 40.3906 61.0701 40.3906C63.4501 40.1506 65.8301 39.8006 68.2101 39.4406C71.7801 38.9606 75.23 38.4907 78.8 38.0107C81.7701 37.6507 84.75 37.3007 87.6 36.8207C91.17 36.3407 94.6201 35.8706 98.1901 35.3906C101.16 35.0306 104.14 34.5606 107.11 34.2006C110.68 33.7206 114.13 33.2506 117.7 32.8906C118.18 32.7705 118.29 32.6506 118.29 32.1806C118.29 25.5206 118.29 18.8606 118.29 12.2006C118.65 11.9506 118.54 11.7107 118.54 11.5907Z" fill="white"/>
<path d="M118.42 11.7107C118.42 11.9507 118.42 12.3008 118.42 12.5408C118.42 18.9608 118.42 25.5007 118.42 31.9307C118.42 32.4107 118.3 32.5206 117.83 32.6406C112.24 33.3506 106.53 34.0708 100.94 34.7808C96.9002 35.2608 92.8502 35.8508 88.8102 36.3308C83.5802 37.0408 78.4602 37.6408 73.2302 38.3508C69.4202 38.8308 65.5002 39.4208 61.6902 39.7808C60.6202 39.9008 59.5502 39.6608 58.4802 39.5408C53.7202 38.9508 48.9602 38.3507 44.2102 37.7607C39.5702 37.1707 34.9302 36.5708 30.1802 36.0908C25.9002 35.6108 21.5002 35.0208 17.2202 34.5408C12.7002 33.9508 8.18016 33.4708 3.66016 32.8708C3.18016 32.8708 3.18018 32.6308 3.18018 32.2808C3.18018 28.9508 3.18018 25.5007 3.18018 22.1707C3.18018 18.8407 3.18018 15.5107 3.18018 12.1807C3.18018 11.7007 3.3002 11.5908 3.7702 11.5908C8.7702 11.0008 13.7602 10.2808 18.7602 9.5708C22.8002 9.0908 26.8502 8.50075 30.8902 8.02075C35.7702 7.43075 40.5202 6.71085 45.4002 6.12085C49.2102 5.64085 53.0102 5.1708 56.8202 4.5708C58.1302 4.4508 59.4402 4.09082 60.6302 4.09082C61.7002 4.09082 62.7702 4.21081 63.8402 4.33081C67.8802 4.81081 71.8102 5.40062 75.8502 5.88062C79.3002 6.36062 82.7502 6.83079 86.2002 7.31079C90.1202 7.79079 94.0502 8.38084 97.9702 8.86084C102.85 9.45084 107.72 10.1707 112.48 10.7607C114.26 11.0007 116.05 11.2407 117.71 11.4707C117.94 11.5907 118.18 11.7107 118.42 11.7107ZM73.1002 17.9006C73.2202 18.0206 73.3402 18.1407 73.3402 18.2607C74.7702 22.9007 76.3102 27.5408 77.7402 32.0608C77.8602 32.4208 77.9802 32.5408 78.4502 32.5408C79.4002 32.5408 80.3502 32.5408 81.3002 32.5408C81.7802 32.5408 82.0102 32.4208 82.0102 31.8308C82.0102 25.2908 82.0102 18.8708 82.0102 12.3208C82.0102 12.0808 82.0102 11.9607 82.0102 11.7307C82.0102 11.6107 81.8902 11.4907 81.7702 11.4907C80.7002 11.4907 79.6302 11.4907 78.5602 11.4907C78.5602 15.5307 78.5602 19.5808 78.5602 23.6208C78.4402 23.5008 78.3202 23.2606 78.3202 23.1406C77.1302 19.4506 75.9402 15.7708 74.8702 12.0808C74.7502 11.6008 74.5102 11.4907 74.1602 11.4907C73.0902 11.4907 72.0202 11.4907 70.9502 11.4907C70.5902 11.4907 70.2402 11.4907 69.8802 11.4907C69.8802 18.5107 69.8802 25.5208 69.8802 32.5408C70.8302 32.5408 71.7802 32.5408 72.8502 32.5408C73.3302 32.5408 73.4402 32.4207 73.4402 31.9507C73.4402 29.3307 73.4402 26.7208 73.4402 24.1008C73.1002 22.0608 73.1002 20.0406 73.1002 17.9006ZM40.1602 32.5208C40.2802 32.5208 40.4002 32.5208 40.4002 32.5208C42.6602 32.5208 44.9202 32.5206 47.3002 32.4006C50.2702 32.2806 51.9402 30.3806 51.9402 27.4006C51.9402 23.7106 51.9402 20.0307 51.9402 16.4607C51.9402 15.0307 51.5802 13.7208 50.5102 12.7708C49.4402 11.8208 48.0102 11.4607 46.7002 11.4607C44.6802 11.4607 42.6602 11.4607 40.6302 11.4607C40.5102 11.4607 40.3902 11.4607 40.1502 11.4607C40.1602 18.6107 40.1602 25.6308 40.1602 32.5208ZM66.4402 10.4006C62.6302 10.4006 58.9502 10.4006 55.2602 10.4006C55.2602 18.2506 55.2602 26.1007 55.2602 33.9507C59.0702 33.9507 62.7502 33.9507 66.4402 33.9507C66.4402 32.8807 66.4402 31.6908 66.4402 30.6208C66.2002 30.6208 66.0802 30.6208 65.8502 30.6208C63.8302 30.6208 61.8102 30.6208 59.9002 30.6208C59.5402 30.6208 59.4202 30.5006 59.4202 30.1406C59.4202 28.2406 59.4202 26.3307 59.4202 24.4307C59.4202 23.8407 59.5402 23.7207 60.1302 23.7207C61.6802 23.7207 63.1002 23.7207 64.6502 23.7207C64.7702 23.7207 65.1302 23.6007 65.1302 23.4807C65.1302 22.4107 65.1302 21.4606 65.1302 20.3906C63.2302 20.3906 61.3202 20.3906 59.5402 20.3906C59.5402 18.1306 59.5402 15.9908 59.5402 13.8508C61.9202 13.8508 64.1802 13.8508 66.5602 13.8508C66.4402 12.5408 66.4402 11.4706 66.4402 10.4006ZM29.8102 24.6707C30.4002 24.6707 30.8802 24.6707 31.3602 24.6707C31.7202 24.6707 31.9502 24.7906 31.9502 25.1506C32.3102 27.1706 32.7802 29.0808 33.2602 31.1008C33.3802 31.5808 33.3802 32.2908 33.7402 32.5308C34.1002 32.7708 34.6902 32.6506 35.1702 32.6506C35.8802 32.6506 36.6002 32.6506 37.3102 32.6506C37.3102 32.4106 37.1902 32.2907 37.1902 32.1707C36.6002 29.4307 35.8802 26.7007 35.2902 23.9607C35.1702 23.6007 35.2902 23.3707 35.5302 23.0107C36.1202 22.5307 36.6002 21.8207 36.6002 20.9907C36.7202 19.5607 36.8402 18.1407 36.8402 16.7107C36.8402 14.8107 35.7702 13.6206 33.8702 13.1406C31.3702 12.6606 28.7602 12.9006 26.2602 12.9006C26.2602 13.0206 26.2602 13.0206 26.2602 13.1406C26.2602 19.4406 26.2602 25.6307 26.2602 31.9307C26.2602 32.2907 26.5002 32.4106 26.7402 32.4106C27.5702 32.4106 28.4102 32.4106 29.3602 32.4106C29.8402 32.4106 29.9502 32.2908 29.9502 31.8208C29.9502 29.6808 29.9502 27.5406 29.9502 25.4006C29.8102 25.3906 29.8102 25.1507 29.8102 24.6707ZM24.2202 31.2207C23.1502 25.5107 22.0802 19.9208 21.1302 14.3308C21.0102 13.9708 20.8902 13.8508 20.5402 13.8508C19.3502 13.8508 18.1602 13.8508 16.9702 13.8508C16.4902 13.8508 16.3802 13.9707 16.2602 14.4407C15.3102 19.7907 14.2402 25.2608 13.2902 30.6208C13.2902 30.7409 13.2902 30.9807 13.2902 31.2107C14.1202 31.2107 14.9602 31.2107 15.7902 31.2107C16.1502 31.2107 16.2702 31.0907 16.3802 30.7307C16.5002 29.9007 16.7402 28.9508 16.8602 28.1108C18.0502 28.1108 19.2402 28.1108 20.4302 28.1108C20.5502 28.1108 20.7902 28.3507 20.7902 28.4707C20.9102 29.3007 21.0302 30.0208 21.2702 30.8508C21.2702 30.9708 21.5102 31.2107 21.5102 31.2107C22.2002 31.2207 23.1502 31.2207 24.2202 31.2207ZM100.22 28.7207C100.22 27.0507 100.22 25.3907 100.22 23.7207C101.65 23.7207 103.07 23.7207 104.5 23.7207C104.5 23.0107 104.5 22.4108 104.5 21.8208C104.5 21.3408 104.38 21.2307 103.91 21.2307C102.72 21.2307 101.41 21.2307 100.22 21.2307C100.22 19.6807 100.22 18.0207 100.22 16.4707C100.46 16.4707 100.81 16.4707 101.05 16.4707C102.36 16.4707 103.79 16.4707 105.09 16.4707C105.57 16.4707 105.68 16.3506 105.68 15.8806C105.68 15.4006 105.68 15.0508 105.68 14.5708C105.68 14.2108 105.56 13.9807 105.09 13.9807C102.59 13.9807 99.9802 13.9807 97.4802 13.9807C97.0002 13.9807 96.8902 14.1008 96.8902 14.5708C96.8902 19.9208 96.8902 25.3907 96.8902 30.7507C96.8902 31.2307 97.0102 31.3408 97.4802 31.3408C100.1 31.3408 102.59 31.3408 105.21 31.3408C105.33 31.3408 105.45 31.3408 105.57 31.3408C105.57 30.5108 105.57 29.7907 105.57 28.9607C103.91 28.7207 102.12 28.7207 100.22 28.7207ZM95.2202 15.8708C95.2202 15.0408 95.2202 14.3208 95.2202 13.6108C95.2202 13.1308 95.1002 13.0208 94.6302 13.0208C91.3002 13.0208 88.0902 13.0208 84.7602 13.0208C84.5202 13.0208 84.4002 13.0208 84.1702 13.0208C84.1702 13.8508 84.1702 14.6908 84.1702 15.5208C84.1702 15.6408 84.4102 15.7607 84.5302 15.7607C85.3602 15.7607 86.2002 15.7607 87.1502 15.7607C87.8602 15.7607 87.8602 15.7607 87.8602 16.4707C87.8602 21.5807 87.8602 26.7008 87.8602 31.8108C87.8602 32.0508 87.8602 32.2906 87.8602 32.4006C89.0502 32.4006 90.2402 32.4006 91.4302 32.4006C91.4302 26.8106 91.4302 21.3407 91.4302 15.7507C92.7302 15.8707 93.9202 15.8708 95.2202 15.8708Z" fill="white"/>
<path d="M43.9601 14.6807C44.7901 14.6807 45.6301 14.6807 46.4601 14.6807C47.5301 14.8007 48.0101 15.3907 48.0101 16.4607C48.0101 16.9407 48.0101 17.2908 48.0101 17.7708C48.0101 20.9808 48.0101 24.3108 48.0101 27.5208C48.0101 27.6408 48.0101 27.7607 48.0101 28.0007C47.8901 29.0707 47.4201 29.6708 46.2301 29.7808C45.6401 29.7808 45.0401 29.7808 44.4501 29.7808C43.9701 29.7808 43.8601 29.6607 43.8601 29.1907C43.8601 28.0007 43.8601 26.6907 43.8601 25.5007C43.8601 22.1707 43.8601 18.8407 43.8601 15.5107C43.9601 15.1607 43.9601 14.9207 43.9601 14.6807Z" fill="white"/>
<path d="M29.9302 21.8203C29.9302 19.9203 29.9302 17.8902 29.9302 15.9902C30.6402 15.9902 31.3602 15.9902 32.0702 15.9902C32.7802 16.1102 33.2602 16.4702 33.2602 17.1802C33.3802 18.2502 33.3802 19.3203 33.2602 20.5103C33.2602 21.2203 32.6702 21.8203 31.9502 21.8203C31.3502 21.8203 30.6402 21.8203 29.9302 21.8203Z" fill="white"/>
<path d="M18.51 17.3008C18.99 20.0408 19.46 22.7706 19.94 25.6306C18.87 25.6306 17.92 25.6306 16.97 25.6306C17.44 22.8906 17.91 20.1608 18.51 17.3008C18.51 17.4208 18.39 17.4208 18.51 17.3008Z" fill="white"/>
</svg>
