<svg width="178" height="55" viewBox="0 0 178 55" fill="none" xmlns="http://www.w3.org/2000/svg">
<path d="M25.83 12.8494C26.19 12.9694 26.42 13.0894 26.78 13.0894C28.8 13.4494 30.71 14.1592 32.01 15.9392C32.72 17.0092 32.96 18.1993 32.84 19.5093C32.6 21.7693 31.41 23.3192 29.39 24.3892C27.49 25.4592 25.35 25.8193 23.21 25.8193C16.31 25.8193 9.40998 25.8193 2.50998 25.8193C0.959979 25.8193 0.959961 25.8193 0.959961 24.2693C0.959961 16.6593 0.959961 8.92933 0.959961 1.30933C0.959961 0.239326 0.959968 0.239258 2.02997 0.239258C8.20997 0.239258 14.4 0.239258 20.47 0.239258C22.25 0.239258 24.04 0.599219 25.7 0.949219C26.89 1.30922 27.96 1.77927 29.03 2.49927C30.81 3.68927 31.88 6.53932 30.93 8.79932C30.22 10.4693 28.91 11.6493 27 12.0093C26.52 12.1293 26.17 12.3694 25.69 12.5994C25.83 12.6094 25.83 12.7294 25.83 12.8494ZM15.84 15.2292C14.53 15.2292 13.1 15.2292 11.8 15.2292C11.09 15.2292 10.85 15.4692 10.85 16.1792C10.85 17.1292 10.85 18.0792 10.85 19.1492C10.85 19.8592 11.21 20.0994 11.92 20.0994C14.06 20.0994 16.2 20.0992 18.34 19.9792C19.29 19.9792 20.12 19.8593 21.08 19.7393C21.79 19.6193 22.27 19.1493 22.51 18.5493C22.75 17.8393 22.87 16.9993 22.27 16.2893C21.56 15.4593 20.72 15.2192 19.65 15.2192C18.34 15.2292 17.03 15.2292 15.84 15.2292ZM15.6 6.18921C14.29 6.18921 12.98 6.18921 11.67 6.18921C11.08 6.18921 10.84 6.42929 10.84 7.01929C10.84 7.60929 10.84 8.20932 10.84 8.79932C10.84 10.2293 10.84 10.2292 12.39 10.2292C14.53 10.2292 16.79 10.2292 18.93 10.2292C19.88 10.2292 20.71 9.9893 21.31 9.2793C21.9 8.4493 21.67 7.13918 20.72 6.65918C20.13 6.29918 19.65 6.1792 18.94 6.1792C17.74 6.1892 16.67 6.18921 15.6 6.18921Z" fill="white"/>
<path d="M107.9 12.97C107.9 9.03997 107.9 5.11995 107.9 1.19995C107.9 0.249951 107.9 0.25 108.85 0.25C111.82 0.25 114.8 0.25 117.65 0.25C118.24 0.25 118.72 0.370088 119.08 0.840088C121.93 3.93009 124.91 7.02012 127.76 10.1201C128.35 10.8301 129.07 11.55 129.66 12.26C129.9 12.5 130.14 12.5001 130.37 12.6201C130.49 12.3801 130.61 12.1399 130.61 11.9099C130.61 8.33991 130.61 4.76996 130.61 1.20996C130.61 0.619961 130.85 0.379883 131.44 0.379883C134.06 0.379883 136.79 0.379883 139.41 0.379883C140.12 0.379883 140.12 0.379961 140.12 1.20996C140.12 8.69996 140.12 16.0801 140.12 23.5701C140.12 24.1601 140.12 24.7601 140.12 25.3501C140.12 25.8301 139.88 26.0601 139.29 26.0601C137.15 26.0601 135.01 26.0601 132.87 26.0601C131.92 26.0601 131.09 25.9401 130.37 25.1101C127.28 21.9001 124.19 18.6901 121.09 15.5901C120.14 14.6401 119.19 13.57 118.24 12.5C118.12 12.38 117.76 12.26 117.65 12.26C117.54 12.26 117.41 12.6201 117.41 12.8501C117.41 14.0401 117.29 15.2299 117.41 16.4199C117.41 17.2499 117.53 18.0899 117.53 18.9199C117.53 20.6999 117.41 22.3699 117.41 24.1499C117.41 24.5099 117.41 24.9801 117.53 25.3401C117.53 25.8201 117.41 26.05 116.94 26.05C114.2 26.05 111.35 26.05 108.61 26.05C108.25 26.05 108.02 25.9301 108.02 25.5701C108.02 25.3301 108.02 24.98 108.02 24.74C107.9 20.7 107.9 16.78 107.9 12.97Z" fill="white"/>
<path d="M155 25.6996C152.03 25.6996 149.05 25.6996 146.2 25.6996C145.25 25.6996 145.25 25.6996 145.25 24.7496C145.25 20.2296 145.25 15.5897 145.25 11.0697C145.25 9.39969 145.25 7.73969 145.25 6.06969C145.25 4.39969 145.25 2.73958 145.13 0.959583C145.13 0.249583 145.25 0.129505 145.96 0.129505C151.19 0.129505 156.43 0.00950521 161.66 0.129505C163.44 0.129505 165.35 0.609583 167.13 0.959583C168.91 1.19958 170.58 1.90973 172.13 2.85973C173.91 3.92973 175.34 5.35963 176.29 7.25963C177 8.68963 177.6 10.1095 177.48 11.6595C177.48 12.4895 177.48 13.4397 177.48 14.2797C177.48 16.1797 176.89 17.8495 175.93 19.3895C174.5 21.7695 172.36 23.1995 169.86 24.1495C168.31 24.7395 166.65 25.0996 165.1 25.4596C164.62 25.5796 164.15 25.5797 163.79 25.5797C160.71 25.6997 157.85 25.6996 155 25.6996ZM155.35 13.0897C155.35 14.6397 155.35 16.1796 155.35 17.7296C155.35 18.4396 155.59 18.5597 156.18 18.5597C156.89 18.5597 157.73 18.5597 158.44 18.5597C160.34 18.5597 162.25 18.4397 164.03 17.8497C166.53 16.8997 167.48 14.7596 167.24 12.2596C167.24 11.6696 167 11.0697 166.76 10.5897C165.57 8.44971 163.55 7.73962 161.17 7.49962C159.5 7.37962 157.84 7.49962 156.29 7.49962C155.58 7.49962 155.34 7.61957 155.34 8.44957C155.35 9.99957 155.35 11.5397 155.35 13.0897Z" fill="white"/>
<path d="M68.5299 25.6995C68.1699 25.6995 67.9399 25.6995 67.8199 25.6995C64.6099 25.6995 61.3999 25.6995 58.1899 25.6995C57.5999 25.6995 57.2399 25.5796 56.8799 25.1096C55.3299 23.2096 53.6699 21.2995 52.1199 19.2795C51.7599 18.7995 51.2899 18.5696 50.6899 18.5696C49.7399 18.5696 48.6699 18.5696 47.7199 18.5696C46.8899 18.5696 46.7699 18.6895 46.7699 19.5195C46.7699 21.2995 46.7699 23.2095 46.7699 24.9895C46.7699 25.3495 46.6499 25.5796 46.1799 25.5796C43.3299 25.5796 40.3499 25.5796 37.4999 25.5796C37.1399 25.5796 36.9099 25.4595 36.9099 24.9895C36.9099 17.2595 36.9099 9.52956 36.9099 1.79956C36.9099 1.55956 36.9099 1.20948 36.9099 0.969482C36.9099 0.0194824 36.9099 0.0195313 37.8599 0.0195313C43.8099 0.0195313 49.7499 0.0195313 55.6999 0.0195313C57.7199 0.0195313 59.7399 0.259482 61.6499 0.969482C63.7899 1.67948 65.6899 2.74954 66.9999 4.77954C68.3099 6.91954 68.5499 9.17957 67.9499 11.5596C67.4699 13.4596 66.3999 15.0096 64.7399 16.0796C64.0299 16.5596 63.4299 16.9095 62.7199 17.2695C62.1299 17.5095 62.1299 17.7495 62.4799 18.2195C63.5499 19.5295 64.6199 20.7195 65.6899 22.0295C66.5099 23.3195 67.4599 24.5095 68.5299 25.6995ZM51.3999 7.01953C50.0899 7.01953 48.6599 7.01953 47.3599 7.01953C46.8799 7.01953 46.5299 7.25949 46.5299 7.72949C46.5299 9.03949 46.5299 10.4695 46.5299 11.7695C46.5299 12.2495 46.7699 12.4795 47.2399 12.4795C47.8299 12.4795 48.3099 12.4795 48.9099 12.4795C50.9299 12.4795 52.9499 12.4796 54.9799 12.3596C55.4599 12.3596 55.9299 12.2395 56.4099 11.9995C57.7199 11.4095 58.0799 10.3294 57.7199 8.66943C57.4799 7.71943 56.4099 6.9994 55.2199 6.8894C54.0199 7.0194 52.7099 7.01953 51.3999 7.01953Z" fill="white"/>
<path d="M87.2001 0.239014C88.7501 0.239014 90.41 0.239014 91.96 0.239014C92.44 0.239014 92.79 0.359102 93.03 0.829102C94.22 3.3291 95.53 5.93896 96.84 8.43896C97.79 10.339 98.86 12.369 99.81 14.269C101 16.769 102.31 19.269 103.5 21.759C104.09 22.829 104.57 23.8991 105.17 25.0891C105.41 25.6791 105.41 25.7991 104.69 25.7991C101.72 25.7991 98.62 25.7991 95.65 25.7991C95.06 25.7991 94.9401 25.4391 94.7001 25.0891C94.3401 24.2591 93.9901 23.309 93.6301 22.469C93.3901 21.879 92.9201 21.8789 92.4401 21.8789C90.0601 21.8789 87.68 21.8789 85.3 21.8789C84.23 21.8789 83.16 21.8789 82.09 21.8789C81.26 21.8789 81.0201 22.1191 80.6601 22.8291C80.3001 23.6591 79.95 24.4991 79.59 25.3291C79.47 25.5691 79.1101 25.8091 78.8801 25.8091C75.9101 25.8091 72.81 25.8091 69.84 25.8091C69.36 25.8091 69.2501 25.5691 69.4801 25.0991C70.5501 23.0791 71.6201 21.0589 72.5701 18.9189C73.2801 17.4889 73.88 16.0689 74.59 14.6389C75.66 12.6189 76.73 10.599 77.68 8.45898C78.39 7.02898 79.1101 5.60895 79.8201 4.17896C80.4101 2.98896 81.0101 1.79913 81.6001 0.609131C81.8401 0.249131 82.08 0.128906 82.55 0.128906C83.99 0.238906 85.5401 0.239014 87.2001 0.239014ZM87.08 15.939C87.79 15.939 88.63 15.939 89.34 15.939C90.29 15.939 90.41 15.579 90.05 14.749C89.46 13.439 88.86 12.249 88.27 10.939C88.03 10.349 87.79 9.86904 87.56 9.26904C87.32 8.78904 86.9701 8.67905 86.7301 9.02905C86.4901 9.38905 86.3701 9.73912 86.1401 10.0991C85.4301 11.7691 84.7101 13.309 84.0001 14.979C83.6401 15.569 83.76 15.929 84.59 15.929C85.42 15.939 86.25 15.939 87.08 15.939Z" fill="white"/>
<path d="M35.5801 33.6694C35.9401 33.6694 36.0601 33.5496 36.2901 33.5496C38.3101 33.5496 40.4501 33.5496 42.4701 33.5496C43.3001 33.5496 43.5401 33.7896 43.7801 34.6196C44.0201 35.4496 44.2601 36.3995 44.4901 37.2395C44.7301 37.9495 44.9701 38.7895 45.0801 39.4995C45.5601 41.0495 45.9101 42.5895 46.3901 44.0195C46.5101 44.3795 46.5101 44.7295 46.6301 44.9695C46.7501 45.2095 46.9901 45.4494 47.2201 45.6794C47.4601 45.4394 47.7001 45.3196 47.7001 45.0896C48.1801 43.7796 48.5301 42.4694 49.0101 41.1594C49.2501 40.5694 49.3701 39.9695 49.6001 39.2595C50.0801 37.5895 50.6701 35.8094 51.1501 34.1494C51.2701 33.6694 51.6301 33.4395 52.1001 33.4395C54.0001 33.4395 55.9101 33.4395 57.9301 33.4395C58.2901 33.4395 58.5201 33.5595 58.6401 34.0295C58.8801 34.9795 59.2301 35.9295 59.4701 36.7695C59.8301 37.9595 60.3001 39.2695 60.7801 40.4595C61.0201 41.0495 61.1401 41.6495 61.3701 42.2395C61.7301 43.1895 61.9601 44.2595 62.3201 45.2095C62.4401 45.4495 62.5601 45.5695 62.6801 45.6895C62.8001 45.5695 63.0401 45.3295 63.0401 45.2095C63.2801 44.3795 63.6301 43.4296 63.8701 42.5896C64.2301 41.1596 64.5801 39.8494 65.0601 38.4294C65.4201 36.9994 65.8901 35.5795 66.2501 34.2695C66.3701 33.7895 66.6101 33.5596 67.0801 33.5596C69.2201 33.5596 71.3601 33.5596 73.5001 33.5596C74.0901 33.5596 74.2101 33.7995 73.9801 34.2695C73.3901 35.8195 72.7901 37.4795 72.2001 39.0295C71.8401 40.0995 71.3701 41.1695 71.0101 42.2395C70.6501 43.3095 70.3001 44.2596 69.9401 45.3296C69.4601 46.5196 69.1101 47.7094 68.6301 48.8994C68.2701 49.8494 67.9201 50.9196 67.5601 51.8696C67.3201 52.4596 67.2001 53.0594 66.9701 53.6494C66.8501 53.8894 66.4901 54.1294 66.2601 54.1294C63.8801 54.1294 61.6201 54.1294 59.2401 54.1294C59.1201 54.1294 58.7601 53.8895 58.7601 53.7695C58.2801 52.0995 57.8101 50.4395 57.2101 48.7695C56.8501 47.4595 56.3801 46.1496 56.0201 44.8496C55.7801 44.1396 55.5401 43.2996 55.3101 42.5896C55.3101 42.4696 55.0701 42.1096 54.9501 42.1096C54.7101 42.1096 54.5901 42.2296 54.3601 42.3496C54.2401 42.4696 54.2401 42.5895 54.1201 42.7095C53.5301 44.7295 52.9301 46.7494 52.3401 48.8894C51.9801 50.1994 51.6301 51.6294 51.2701 52.9294C51.0301 53.8794 50.6801 54.1196 49.7201 54.1196C47.8201 54.1196 45.9101 54.1196 44.0101 54.1196C42.9401 54.1196 42.8201 53.9994 42.4601 52.9294C41.8701 51.2594 41.2701 49.5994 40.6801 47.9294C40.0901 46.3794 39.6101 44.8396 39.0101 43.2896C38.3001 41.3896 37.5801 39.4796 36.8701 37.5796C36.5401 36.5196 36.0601 35.0894 35.5801 33.6694Z" fill="white"/>
<path d="M142.75 43.8896C142.75 46.9796 142.75 50.1898 142.75 53.2898C142.75 54.2398 142.63 54.2397 141.8 54.2397C139.78 54.2397 137.64 54.2397 135.62 54.2397C134.79 54.2397 134.67 54.1198 134.67 53.2898C134.67 51.3898 134.67 49.3697 134.67 47.4597C134.67 46.8697 134.43 46.6296 133.84 46.6296C130.99 46.6296 128.25 46.6296 125.4 46.6296C124.57 46.6296 124.45 46.7498 124.45 47.5798C124.45 49.4798 124.45 51.3898 124.45 53.2898C124.45 54.1198 124.33 54.2397 123.62 54.2397C121.6 54.2397 119.46 54.2397 117.44 54.2397C116.73 54.2397 116.61 54.1197 116.61 53.4097C116.61 47.1097 116.61 40.6796 116.61 34.3796C116.61 33.6696 116.73 33.5498 117.44 33.5498C119.46 33.5498 121.6 33.5498 123.62 33.5498C124.33 33.5498 124.45 33.6696 124.45 34.3796C124.45 36.1596 124.45 37.9499 124.45 39.6099C124.45 40.5599 124.69 40.6798 125.52 40.5598C127.42 40.5598 129.33 40.5598 131.35 40.5598C132.3 40.5598 133.25 40.5598 134.2 40.5598C134.68 40.5598 134.68 40.1999 134.68 39.8499C134.68 38.5399 134.68 37.1098 134.68 35.8098C134.68 35.3298 134.68 34.8598 134.68 34.2598C134.68 33.5498 134.8 33.4297 135.51 33.4297C137.65 33.4297 139.67 33.4297 141.81 33.4297C142.64 33.4297 142.76 33.5496 142.76 34.3796C142.75 37.7096 142.75 40.7996 142.75 43.8896Z" fill="white"/>
<path d="M100.76 33.55C104.45 33.55 108.02 33.55 111.7 33.55C112.53 33.55 112.65 33.67 112.65 34.5C112.65 35.93 112.65 37.2399 112.65 38.6599C112.65 39.2499 112.53 39.3701 111.94 39.3701C109.92 39.3701 107.78 39.3701 105.76 39.3701C104.93 39.3701 104.81 39.4901 104.81 40.3201C104.81 44.6001 104.81 48.76 104.81 53.05C104.81 53.29 104.81 53.53 104.81 53.76C104.81 54.12 104.57 54.3501 104.22 54.3501C101.96 54.3501 99.7 54.3501 97.32 54.3501C96.84 54.3501 96.73 54.1099 96.73 53.6399C96.73 52.9299 96.73 52.3301 96.73 51.6201C96.73 47.9301 96.73 44.2501 96.73 40.5601C96.73 39.4901 96.61 39.3701 95.54 39.3701C93.52 39.3701 91.38 39.3701 89.36 39.3701C89 39.3701 88.77 39.2499 88.77 38.8899C88.77 37.2199 88.77 35.68 88.77 34.01C88.77 33.53 89.13 33.4199 89.6 33.4199C91.27 33.4199 92.81 33.4199 94.48 33.4199C96.48 33.5499 98.62 33.55 100.76 33.55Z" fill="white"/>
<path d="M76.7402 43.8899C76.7402 40.7999 76.7402 37.7101 76.7402 34.6101C76.7402 33.6601 76.8602 33.54 77.8102 33.54C79.8302 33.54 81.8502 33.54 83.8802 33.54C84.8302 33.54 84.9502 33.66 84.9502 34.49C84.9502 40.79 84.9502 46.98 84.9502 53.28C84.9502 54.23 84.8302 54.23 84.0002 54.23C81.9802 54.23 79.8402 54.23 77.8202 54.23C76.9902 54.23 76.8702 54.11 76.8702 53.28C76.6202 50.2 76.7402 47.1099 76.7402 43.8899Z" fill="white"/>
</svg>
