<svg width="58" height="54" viewBox="0 0 58 54" fill="none" xmlns="http://www.w3.org/2000/svg">
<path d="M48.7499 46.6305C48.6299 46.5105 48.5099 46.3905 48.3899 46.3905C48.2699 46.3905 48.1499 46.3907 48.0299 46.5107C47.3199 46.9907 46.4799 47.4607 45.6499 47.8207C45.5299 47.9407 45.4099 47.9406 45.2899 47.9406C45.6499 47.5806 45.8799 47.2305 45.9999 46.6305C46.1199 46.2705 45.9999 45.9207 45.9999 45.8007C45.9999 45.4407 45.8799 44.7305 45.1699 44.1305C44.5799 43.6505 43.7399 43.4205 43.0299 43.6505C41.9599 44.0105 41.5999 45.0806 41.3599 45.6706C41.3599 45.7906 41.2399 46.0307 41.2399 46.2607H41.1199C40.4099 46.8507 38.9799 47.8107 37.7899 48.2807C37.5499 48.4007 37.3099 48.4005 37.0799 48.4005C36.7199 48.2805 36.5999 47.8106 36.4899 47.6906C36.2499 46.9806 36.2499 46.1406 36.4899 44.9506L36.6099 44.8307C37.7999 43.4007 38.6299 41.6207 39.3499 39.8307C39.5899 39.1207 39.7099 38.5207 40.0599 37.0907C41.8399 29.8307 41.0099 29.3606 40.6499 29.2406C40.4099 29.1206 40.0599 29.1206 39.9399 29.2406L39.6999 29.3608L39.5799 29.6007C39.3399 30.0807 39.2199 30.4306 38.9899 30.9106C38.6299 31.6206 38.5099 32.3407 38.2799 32.8107C37.6899 34.8307 37.2099 36.3806 37.2099 36.5006C37.0899 37.0906 36.8499 38.0508 36.6199 39.1208C36.3799 39.9508 36.3799 40.1907 36.1399 41.2607L35.6599 43.2807C35.5399 43.7607 35.4199 44.2306 35.2999 44.7106C34.3499 45.9006 32.6799 47.4507 30.5399 48.0407C29.9499 48.1607 29.5899 48.2806 29.2299 48.1606C28.7499 48.0406 28.3999 47.8007 28.0399 47.3307C28.1599 47.2107 28.1599 47.2106 28.1599 47.2106C28.5199 46.9706 30.5399 45.5406 30.7799 44.4706C30.8999 44.2306 30.7799 43.9907 30.7799 43.7607C30.6599 43.2807 30.1899 43.0507 29.7099 42.8107C28.7599 42.5707 27.8099 43.1707 27.4499 43.7607C26.7399 44.7107 26.4999 45.7807 26.7399 46.8507C25.9099 47.3307 24.8399 47.9206 24.1199 48.1606C23.8799 48.2806 23.6399 48.2806 23.4099 48.1606C23.4099 48.1606 23.2899 48.0407 23.1699 48.0407C22.9299 47.9207 22.8099 47.2107 23.1699 46.2607C23.1699 46.1407 23.1699 46.1407 23.1699 46.0207C23.4099 45.6607 23.6499 45.1907 23.7599 44.8307C23.8799 44.5907 23.7599 44.2408 23.5199 44.1208C23.2799 44.0008 22.9299 44.1208 22.8099 44.3608C22.2199 45.6707 21.4999 46.8606 20.4299 47.9306C19.5999 48.7606 18.7599 49.3606 17.8099 49.9506C15.0699 51.3806 13.1698 51.7307 12.2198 51.0207C11.3898 50.4307 11.2699 49.0006 11.2699 47.9306C11.1499 45.4306 12.3399 43.5305 13.5299 41.3905L13.6499 41.2707C14.3599 39.9607 15.1999 38.7706 16.2699 37.4606C16.5099 37.1006 16.7499 36.8707 16.9799 36.5107C17.6899 35.6807 18.2899 34.8405 18.9999 34.1305C19.4799 33.6505 19.9499 33.1806 20.5499 32.7006C20.6699 32.7006 20.7899 32.7006 20.9099 32.7006C21.7399 32.8206 22.4599 32.8206 23.2899 32.7006C23.5299 32.7006 23.8799 32.7006 24.1199 32.7006C25.3099 32.7006 26.3799 32.2205 27.0899 31.6305C27.4499 31.2705 27.6799 30.9206 27.6799 30.4406C27.6799 30.0806 27.5599 29.7308 27.3199 29.3708C26.9599 29.0108 26.4899 28.7806 26.0099 28.6606C25.2999 28.5406 24.5799 28.9005 23.9899 29.1405C22.7999 29.7305 21.7299 30.4506 20.6599 31.1606C20.5399 31.2806 20.2999 31.4007 20.1799 31.5207C19.9399 31.5207 19.6999 31.4005 19.5899 31.4005C18.9999 31.2805 18.3999 31.1607 17.8099 31.0407C15.4299 30.8007 13.5299 31.9907 12.9299 34.0107C12.8099 34.6007 12.6899 35.0806 12.6899 35.6806C12.6899 35.9206 12.8099 36.2707 13.1699 36.2707C13.4099 36.2707 13.7599 36.1507 13.7599 35.7907C13.7599 35.3107 13.8799 34.8408 13.9999 34.3608C14.4799 32.6908 16.2599 31.9806 17.8099 32.2206C18.2899 32.2206 18.8799 32.3406 19.3599 32.4606C18.9999 32.7006 18.7699 33.0506 18.4099 33.4106C17.6999 34.2406 16.9799 35.0806 16.2699 35.9106C16.0299 36.1506 15.7899 36.5006 15.5599 36.7406C14.4899 38.0506 13.5399 39.3606 12.8199 40.6606L12.6999 40.7807C11.3899 43.0407 10.1999 45.0607 10.3199 47.8007C10.3199 49.1107 10.4399 50.7706 11.6299 51.7206C12.1099 52.0806 12.8199 52.3107 13.5299 52.3107C15.4299 52.3107 17.4499 51.2407 18.2899 50.7607C19.3599 50.1707 20.3099 49.4508 21.1399 48.6208C21.3799 48.3808 21.6198 48.0307 21.9698 47.7907C22.0898 48.2707 22.2099 48.6208 22.5599 48.8608C22.7999 48.9808 23.0399 49.1006 23.1499 49.2206C23.5099 49.3406 23.9799 49.3406 24.4599 49.2206C25.2899 48.9806 26.4799 48.3906 27.3099 47.9106C27.7899 48.6206 28.3799 48.9806 29.2099 49.2206C29.9199 49.3406 30.6399 49.2207 30.9899 49.1007C32.4199 48.6207 33.8399 47.7907 35.1499 46.6007C35.1499 47.3107 35.1499 47.7905 35.3899 48.3805C35.5099 48.6205 35.7499 49.3306 36.5799 49.6906C36.8199 49.8106 36.9399 49.8107 37.1699 49.8107C37.5299 49.8107 37.7599 49.6907 37.9999 49.5707C39.0699 49.2107 40.2599 48.3807 41.0899 47.7907C41.0899 48.0307 41.2099 48.2705 41.3299 48.3805C41.6899 48.9705 42.3999 49.3307 43.1099 49.3307C43.3499 49.3307 43.5899 49.2107 43.9399 49.0907C43.9399 49.0907 44.0599 49.2106 44.1799 49.2106C44.6599 49.4506 45.1299 49.3307 45.9599 48.8507C46.7899 48.4907 47.6299 48.0206 48.4599 47.4206C48.8699 47.2206 48.9799 46.8705 48.7499 46.6305ZM37.4499 41.4005C37.6899 40.3305 37.6899 40.0907 37.9299 39.2607C38.1699 38.1907 38.4099 37.2405 38.5199 36.6405C38.5199 36.5205 38.9999 34.9707 39.5899 33.0707C39.7099 32.5907 39.9499 32.0006 40.1799 31.1706C40.1799 31.1706 40.1799 31.0507 40.2999 31.0507C40.1799 32.3607 39.8199 34.6205 39.2299 36.8805C38.8699 38.1905 38.7499 38.9006 38.5199 39.5006C38.1599 40.4506 37.8099 41.4006 37.2099 42.2406L37.4499 41.4005ZM24.9599 29.9806C25.4399 29.7406 25.9099 29.5006 26.3899 29.5006C26.6299 29.5006 26.8699 29.6208 26.9799 29.8608C26.9799 29.9808 27.0999 29.9806 27.0999 30.2206C27.0999 30.3406 26.9799 30.5806 26.7399 30.7006C26.1499 31.1806 25.4299 31.5307 24.4799 31.5307C24.2399 31.5307 23.8899 31.5307 23.6499 31.5307C23.1699 31.5307 22.6998 31.5307 22.2198 31.5307C23.0598 31.0507 24.0099 30.4506 24.9599 29.9806ZM28.6499 44.3708C28.8899 44.0108 29.2398 43.7807 29.7198 43.7807C29.8398 43.7807 29.8399 43.7807 29.9599 43.7807C30.1999 43.7807 30.3199 43.9007 30.3199 44.0207V44.1405C30.1999 44.6205 29.1299 45.5707 28.1799 46.2807C28.0499 45.5607 28.2899 44.9608 28.6499 44.3708ZM44.4698 44.8507C44.1098 45.3307 43.7599 45.9205 43.6399 46.4005C43.6399 46.6405 43.3999 47.3506 43.5199 47.9506C43.5199 47.9506 43.3999 47.9507 43.3999 48.0707C43.2799 48.0707 43.2799 48.0707 43.2799 48.0707C42.9199 48.0707 42.5699 47.8307 42.4499 47.5907C42.0899 47.1107 42.3299 46.4006 42.5699 45.9206C42.6899 45.4406 42.9299 44.7306 43.5199 44.4906C43.6399 44.4906 43.7599 44.4906 43.8799 44.4906C44.1099 44.6106 44.3498 44.7307 44.4698 44.8507ZM45.0599 46.5107C45.0599 46.8707 44.8199 47.1006 44.5799 47.2206C44.5799 46.9806 44.5799 46.8605 44.6999 46.6305C44.8199 46.3905 44.9399 46.0407 45.0599 45.8007V45.9206C45.0599 46.0306 45.1799 46.2707 45.0599 46.5107Z" fill="white"/>
<path d="M24.48 43.6504C24.8721 43.6504 25.19 43.3326 25.19 42.9404C25.19 42.5483 24.8721 42.2305 24.48 42.2305C24.0879 42.2305 23.77 42.5483 23.77 42.9404C23.77 43.3326 24.0879 43.6504 24.48 43.6504Z" fill="white"/>
<path d="M57.19 52.8103L29 0.600342C29 0.600342 29 0.480225 28.88 0.480225C28.88 0.480225 28.88 0.480352 28.76 0.360352H28.64C28.64 0.360352 28.64 0.360352 28.52 0.360352C28.52 0.360352 28.52 0.360352 28.4 0.360352H28.28H28.16C28.16 0.360352 28.04 0.360225 28.04 0.480225C28.04 0.480225 28.04 0.480342 28.04 0.600342L0.210009 52.8103C-0.029991 53.1703 0.209999 53.5203 0.449999 53.7603C0.569999 53.7603 0.689985 53.8801 0.809985 53.8801C1.04998 53.8801 1.29001 53.7603 1.40001 53.5203L28.64 2.38013L56.23 53.5203C56.35 53.7603 56.59 53.8801 56.82 53.8801C56.94 53.8801 57.06 53.8803 57.18 53.7603C57.31 53.5303 57.43 53.1703 57.19 52.8103Z" fill="white"/>
</svg>
