<svg width="36" height="36" viewBox="0 0 36 36" fill="none" xmlns="http://www.w3.org/2000/svg">
<path d="M18.3643 35.9095C8.74428 35.9595 0.844279 27.9694 0.894279 18.3294C0.944279 8.78944 8.82426 0.889558 18.5043 0.949558C28.0343 0.999558 35.9643 8.8897 35.8843 18.5897C35.8043 28.1197 27.9443 35.9895 18.3643 35.9095ZM18.3543 8.50962C17.1543 8.49962 15.9443 8.50936 14.7443 8.49936C14.1843 8.49936 13.6343 8.5495 13.0843 8.6395C11.0743 8.9895 9.63427 10.0696 8.88427 12.0096C8.60427 12.7296 8.48427 13.4796 8.47427 14.2396C8.40427 17.2496 8.31427 20.2596 8.54427 23.2596C8.67427 24.9596 9.40426 26.3795 10.8443 27.3695C11.8543 28.0595 13.0043 28.3195 14.2043 28.3495C17.2243 28.4395 20.2443 28.5296 23.2643 28.2796C25.1643 28.1296 26.6743 27.2394 27.6143 25.5194C28.1043 24.6194 28.3043 23.6395 28.3243 22.6395C28.4043 19.6195 28.4843 16.5997 28.2543 13.5897C28.1243 11.8997 27.4043 10.4996 25.9743 9.50962C24.9343 8.78962 23.7443 8.54938 22.5143 8.51938C21.1243 8.47938 19.7443 8.50962 18.3543 8.50962Z" fill="white"/>
<path d="M26.6543 18.4292C26.6543 19.8092 26.6743 21.1992 26.5943 22.5792C26.5743 22.9892 26.5243 23.3891 26.4243 23.7891C26.0143 25.4091 24.8443 26.3994 23.1543 26.5694C21.1343 26.7694 19.1143 26.6793 17.0943 26.6993C15.9443 26.7093 14.8043 26.6891 13.6543 26.5791C11.7243 26.3891 10.4543 25.1092 10.2543 23.1792C10.0943 21.5492 10.1343 19.9093 10.1243 18.2793C10.1243 16.7493 10.0943 15.2095 10.2543 13.6895C10.4443 11.7895 11.7243 10.4991 13.6343 10.3091C15.6443 10.1091 17.6543 10.1992 19.6643 10.1792C20.8243 10.1692 21.9843 10.1894 23.1343 10.2994C25.0643 10.4894 26.3343 11.7695 26.5343 13.6895C26.6143 14.4795 26.6443 15.2694 26.6543 16.0694C26.6643 16.8594 26.6543 17.6392 26.6543 18.4292ZM23.4943 18.4493C23.4943 15.6193 21.2543 13.3494 18.4343 13.3394C15.5743 13.3294 13.3043 15.5795 13.3043 18.4195C13.3043 21.2495 15.5543 23.5193 18.3643 23.5293C21.2143 23.5393 23.4843 21.2893 23.4943 18.4493ZM24.9143 13.0992C24.9243 12.4892 24.3943 11.9395 23.7743 11.9195C23.1443 11.8995 22.5843 12.4394 22.5843 13.0694C22.5743 13.6894 23.0843 14.2291 23.7143 14.2491C24.3343 14.2791 24.9043 13.7292 24.9143 13.0992Z" fill="white"/>
<path d="M21.7544 18.4404C21.7544 20.3304 20.2744 21.8103 18.3844 21.8003C16.5044 21.8003 15.0244 20.3104 15.0244 18.4204C15.0244 16.5404 16.5144 15.0703 18.4144 15.0703C20.2844 15.0803 21.7544 16.5704 21.7544 18.4404Z" fill="white"/>
</svg>
