<svg width="36" height="36" viewBox="0 0 36 36" fill="none" xmlns="http://www.w3.org/2000/svg">
<path d="M17.5842 0.949304C7.92418 0.919304 0.0241786 8.83928 -0.00582144 18.4293C-0.0258214 28.0593 7.86418 36.0593 17.5242 35.9893C27.1142 36.0593 34.9942 28.1592 35.0542 18.5992C35.1342 8.87921 27.1642 0.979304 17.5842 0.949304ZM12.1342 28.0694C12.1342 28.2894 12.0642 28.3692 11.8442 28.3692C10.6642 28.3592 9.49416 28.3592 8.31416 28.3692C8.07416 28.3692 8.02416 28.2794 8.03416 28.0694C8.04416 26.0894 8.03416 24.1095 8.03416 22.1295C8.03416 20.1795 8.03418 18.2191 8.02418 16.2691C8.02418 15.9991 8.09415 15.9095 8.37415 15.9195C9.52415 15.9395 10.6742 15.9295 11.8142 15.9195C12.0442 15.9195 12.1342 15.9793 12.1342 16.2193C12.1242 20.1693 12.1242 24.1194 12.1342 28.0694ZM10.0942 13.4893C8.72415 13.4893 7.63416 12.3991 7.63416 11.0191C7.63416 9.62913 8.70415 8.55942 10.0942 8.56942C11.4742 8.56942 12.5642 9.66938 12.5542 11.0294C12.5442 12.3794 11.4342 13.4893 10.0942 13.4893ZM27.4242 28.0094C27.4242 28.3694 27.4242 28.3692 27.0642 28.3692C25.9342 28.3692 24.8042 28.3595 23.6742 28.3795C23.4042 28.3795 23.3142 28.3094 23.3242 28.0294C23.3342 25.7994 23.3242 23.5592 23.3342 21.3292C23.3342 20.5292 23.1042 19.8495 22.4442 19.3595C21.8242 18.8995 21.1342 18.7892 20.4242 19.0992C19.6942 19.4192 19.2442 19.9794 19.1242 20.7794C19.0842 21.0494 19.0842 21.3194 19.0842 21.5894C19.0842 23.7194 19.0842 25.8593 19.0842 27.9893C19.0842 28.3693 19.0842 28.3692 18.6942 28.3692C17.5642 28.3692 16.4342 28.3595 15.3042 28.3795C15.0442 28.3795 14.9842 28.2994 14.9842 28.0494C14.9942 26.0794 14.9842 24.1095 14.9842 22.1295C14.9842 20.1795 14.9942 18.2191 14.9742 16.2691C14.9742 15.9991 15.0442 15.9095 15.3242 15.9195C16.4742 15.9395 17.6242 15.9295 18.7742 15.9195C19.0042 15.9195 19.1042 15.9791 19.0842 16.2291C19.0642 16.5891 19.0742 16.9494 19.0842 17.3194C19.0842 17.3894 19.0542 17.4891 19.1242 17.5191C19.2242 17.5591 19.2542 17.4392 19.2942 17.3892C20.0142 16.4692 20.9542 15.9093 22.0942 15.7193C23.3042 15.5293 24.4142 15.8694 25.3842 16.5894C26.7242 17.5794 27.4142 18.9194 27.4242 20.5894C27.4342 23.0494 27.4242 25.5294 27.4242 28.0094Z" fill="white"/>
</svg>
