<svg width="124" height="54" viewBox="0 0 124 54" fill="none" xmlns="http://www.w3.org/2000/svg">
<path d="M118.19 23.9107C117 24.8607 116.05 25.6907 114.98 26.4107C107.49 30.9307 97.9698 26.8909 95.9498 18.3209C94.2798 11.4209 96.6598 5.12082 102.49 2.03082C111.41 -2.84918 122.59 2.51074 123.19 13.4507C123.43 17.4907 123.31 21.5409 123.19 25.5809C123.19 27.1309 122.12 28.0809 120.57 28.0809C119.14 28.0809 118.07 27.1309 118.07 25.5809C118.19 24.9809 118.19 24.5107 118.19 23.9107ZM100.47 14.2808C100.47 14.7608 100.47 15.2309 100.59 15.8309C101.07 20.1109 104.75 23.5608 109.03 23.8008C113.43 23.9208 117.12 21.1807 118.19 16.9007C119.38 12.3807 117.36 7.74076 113.55 5.72076C107.37 2.62076 100.47 7.14082 100.47 14.2808Z" fill="white"/>
<path d="M54.9199 25.2205C52.2999 27.4805 49.2099 28.4305 45.6399 28.1905C39.3399 27.7105 34.8199 23.1906 34.5799 16.7706C34.4599 12.1306 34.5799 7.49067 34.5799 2.85067C34.5799 1.18067 35.5299 0.230554 37.0799 0.230554C38.6299 0.230554 39.6999 1.18067 39.6999 2.85067C39.6999 6.78067 39.6999 10.7006 39.6999 14.5106C39.6999 15.4606 39.7 16.4106 39.82 17.2506C40.7699 22.3606 45.1699 23.6706 48.6199 23.3206C50.5199 23.0806 52.3099 22.3705 53.6199 20.9405C54.5699 19.8705 55.1699 18.5606 55.1699 17.0206C55.1699 12.2606 55.1699 7.50069 55.1699 2.87069C55.1699 0.970691 56.3599 -0.0995433 58.1399 0.130457C59.3299 0.250457 60.1599 1.08047 60.1599 2.39047C60.1599 2.51047 60.1599 2.63069 60.1599 2.87069C60.1599 10.2407 60.1599 17.7407 60.1599 25.1107C60.1599 26.1807 59.7999 27.1307 58.7299 27.6107C57.7799 27.9707 56.7099 28.0906 55.9899 27.2506C55.6299 26.8906 55.3899 26.0505 54.9199 25.2205Z" fill="white"/>
<path d="M5.79994 3.4601C7.69994 1.7901 9.72993 0.720255 11.9799 0.370255C19.2399 -0.819745 25.7799 3.22021 26.2499 11.0702C26.6099 15.9502 26.3699 20.7002 26.3699 25.5802C26.3699 27.1302 25.2999 27.9601 23.7499 27.9601C22.3199 27.9601 21.2499 27.0101 21.2499 25.4601C21.2499 21.4201 21.3699 17.3702 21.2499 13.3302C21.2499 11.6602 20.8899 9.88009 20.1799 8.45009C18.7499 5.48009 15.1799 4.17002 11.4999 4.88002C8.52994 5.47002 5.42994 7.73016 5.54994 12.0202C5.66994 16.5402 5.54994 20.9401 5.54994 25.4601C5.54994 26.8901 4.71994 27.7201 3.52994 27.9601C2.09994 28.2001 1.02994 27.6002 0.559937 26.2902C0.439937 25.9302 0.439941 25.5801 0.439941 25.2201C0.439941 17.9601 0.439941 10.5902 0.439941 3.34023C0.439941 1.32023 1.62994 0.250128 3.52994 0.490128C4.95994 0.720128 5.55994 1.5501 5.79994 3.4601Z" fill="white"/>
<path d="M78.7 28.1905C75.96 28.1905 72.52 27.3606 69.54 25.3406C69.3 25.1006 69.06 24.9806 68.83 24.7506C67.52 23.5606 67.4 22.2505 68.35 21.1805C69.54 19.8705 71.09 19.7505 72.28 20.9405C75.13 23.5605 78.58 24.1506 82.27 23.3206C82.75 23.2006 83.34 22.9605 83.82 22.7305C85.96 21.5405 86.2 18.8107 84.06 17.6207C82.28 16.6707 80.13 16.3106 78.23 15.6007C76.33 14.8907 74.19 14.5305 72.4 13.4605C67.64 10.6105 67.76 4.90048 72.4 1.92048C76.8 -0.819525 84.53 -0.219466 88.34 3.23053C88.82 3.59053 89.17 4.06059 89.53 4.54059C90.48 5.97059 89.53 7.75044 87.86 7.63044C87.03 7.63044 85.96 7.27048 85.36 6.68048C82.62 4.30048 79.41 4.18056 76.2 5.01056C75.01 5.37056 74.06 5.96045 73.94 7.39045C73.82 8.70045 74.42 9.77054 75.96 10.2405C78.22 10.9505 80.6 11.5506 82.98 12.2606C84.29 12.6206 85.48 13.0905 86.67 13.6905C92.14 16.3105 91.43 22.9706 87.74 25.8206C85.48 27.4806 82.87 28.3105 78.7 28.1905Z" fill="white"/>
<path d="M79.06 41.1604C79.06 38.9004 79.06 36.8806 79.06 34.8606C79.06 33.1906 79.42 32.6006 80.37 32.6006C81.32 32.6006 81.68 33.1906 81.68 34.8606C81.68 38.7906 81.68 42.5905 81.68 46.5205C81.68 50.0905 79.18 53.0605 75.85 53.7805C72.28 54.4905 68.83 52.7104 67.41 49.3804C65.51 44.6204 68.48 38.6805 74.19 39.0305C75.73 38.9005 77.04 39.4904 79.06 41.1604ZM79.06 46.3904C79.06 43.4204 77.04 41.2805 74.3 41.2805C71.56 41.2805 69.42 43.4204 69.42 46.3904C69.42 49.1304 71.44 51.3905 74.18 51.5005C77.04 51.3905 79.06 49.2504 79.06 46.3904Z" fill="white"/>
<path d="M109.15 46.2703C109.15 41.7503 112.24 38.7803 116.76 38.7803C121.04 38.7803 124.02 41.9903 123.9 46.5103C123.9 50.7903 120.81 53.7703 116.41 53.7703C112.24 53.7703 109.15 50.5503 109.15 46.2703ZM121.4 46.2703C121.4 43.3003 119.38 41.1602 116.64 41.1602C113.9 41.1602 111.76 43.3003 111.76 46.2703C111.76 49.2403 113.78 51.3801 116.52 51.3801C119.38 51.3901 121.4 49.2503 121.4 46.2703Z" fill="white"/>
<path d="M52.3001 52.1003C50.5201 53.5303 48.6101 54.0001 46.4701 53.6501C43.7301 53.1701 41.7101 51.1503 41.4701 48.3003C41.2301 45.6803 41.3501 43.0703 41.3501 40.3303C41.3501 39.2603 41.9401 38.7803 42.7801 38.7803C43.7301 38.9003 44.0901 39.4902 44.0901 40.4502C44.0901 42.5902 44.0901 44.7304 44.0901 46.8704C44.0901 50.4404 47.5401 52.4602 50.6301 50.6802C51.8201 49.9702 52.4101 49.0103 52.4101 47.5903C52.4101 45.2103 52.4101 42.9503 52.4101 40.5703C52.4101 39.3803 52.8901 38.7903 53.7201 38.7903C54.6701 38.7903 55.1501 39.3802 55.1501 40.6902C55.1501 44.3802 55.1501 47.9501 55.1501 51.6301C55.1501 52.4601 55.1501 53.3003 54.0801 53.5303C53.0101 53.8803 52.5401 53.0503 52.3001 52.1003Z" fill="white"/>
<path d="M6.39005 53.7704C4.25005 53.6504 2.46005 53.2904 0.920049 52.2204C-0.0299506 51.5104 -0.269947 50.7904 0.330053 50.2004C0.920053 49.4904 1.76006 49.3705 2.71006 50.0805C4.26006 51.3905 6.16005 51.6303 8.06005 51.1503C8.65005 51.0303 9.25006 50.3204 9.49006 49.7204C9.85006 48.8904 9.13005 48.1704 8.30005 47.9404C7.35005 47.5804 6.40005 47.4605 5.45005 47.1105C4.38005 46.7505 3.19005 46.4005 2.36005 45.8005C0.100052 44.2505 0.220047 41.4005 2.48005 39.8505C4.86005 38.3005 9.02005 38.5404 11.1601 40.4404C11.7501 40.9204 12.3501 41.5105 11.7501 42.3405C11.2701 43.0505 10.4401 43.0505 9.61005 42.3405C8.18005 41.1505 6.64005 41.0303 4.97005 41.3903C4.26005 41.5103 3.54005 41.8705 3.42005 42.8205C3.30005 43.7705 4.01005 44.2504 4.73005 44.4904C6.16005 44.9704 7.70006 45.3205 9.13006 45.8005C10.5601 46.2805 11.8701 46.9903 12.2201 48.6503C12.8101 51.1503 11.15 53.2904 8.29004 53.7604C7.46004 53.7704 6.87005 53.7704 6.39005 53.7704Z" fill="white"/>
<path d="M23.7501 41.8701C22.8001 41.6301 21.3701 42.1099 21.3701 40.6799C21.3701 39.1299 22.8001 39.6101 23.8701 39.3701C23.8701 38.1801 23.8701 36.99 23.8701 35.8C23.8701 34.73 24.3501 34.25 25.1801 34.25C26.2501 34.25 26.4901 34.96 26.4901 35.8C26.4901 36.99 26.4901 38.1801 26.4901 39.3701C27.2001 39.3701 27.8001 39.3701 28.3901 39.3701C29.2201 39.3701 29.9401 39.4901 29.9401 40.5601C29.9401 41.5101 29.2301 41.75 28.3901 41.75C27.8001 41.75 27.2001 41.75 26.4901 41.75C26.4901 42.11 26.3701 42.3401 26.3701 42.5801C26.3701 44.4801 26.3701 46.39 26.3701 48.29C26.3701 50.19 27.2001 51.03 28.9901 51.03C29.9401 51.03 30.5401 51.3901 30.5401 52.3401C30.5401 53.2901 29.9501 53.65 29.1101 53.77C26.1401 54.01 23.8801 51.8699 23.7601 48.8899C23.7601 46.7499 23.7601 44.4901 23.7601 42.3501C23.8701 42.1101 23.7501 41.9901 23.7501 41.8701Z" fill="white"/>
<path d="M97.14 46.2708C97.14 48.2908 97.14 50.2008 97.14 52.2208C97.14 53.1708 96.78 53.6507 95.83 53.6507C94.88 53.6507 94.52 53.0608 94.52 52.2208C94.52 48.2908 94.52 44.3709 94.52 40.5609C94.52 40.0809 94.76 39.4908 95.11 39.2508C95.94 38.6608 97.13 39.2508 97.13 40.4408C97.14 42.3508 97.14 44.2508 97.14 46.2708Z" fill="white"/>
<path d="M97.6199 34.7401C97.6199 35.6901 96.7899 36.5201 95.8399 36.5201C94.8899 36.5201 94.1699 35.8102 94.1699 34.8502C94.1699 33.9002 94.8799 33.0702 95.8399 33.0702C96.7799 32.9502 97.6199 33.7801 97.6199 34.7401Z" fill="white"/>
</svg>
