<svg width="36" height="36" viewBox="0 0 36 36" fill="none" xmlns="http://www.w3.org/2000/svg">
<path d="M18.2342 35.9093C8.62418 35.9693 0.734172 27.9793 0.784172 18.3493C0.834172 8.79927 8.69417 0.90937 18.3442 0.94937C27.8642 0.99937 35.7842 8.86925 35.7042 18.5793C35.6342 28.1093 27.7942 35.9793 18.2342 35.9093ZM18.7442 15.5993C18.7442 17.7493 18.7442 19.8892 18.7442 22.0392C18.7442 22.2992 18.7242 22.5595 18.6742 22.8195C18.3842 24.3695 16.7942 25.4694 15.2542 25.1793C13.5842 24.8594 12.4942 23.2994 12.8142 21.6994C13.1342 20.0794 14.5942 19.0492 16.2342 19.3092C16.5842 19.3692 16.6342 19.2494 16.6242 18.9494C16.6142 18.2894 16.6242 17.6294 16.6142 16.9694C16.6042 16.0394 16.7242 16.1395 15.7742 16.1295C11.9942 16.0895 9.12419 19.3495 9.61419 23.0695C10.0442 26.3595 13.2342 28.8592 16.7742 28.2692C19.7642 27.7692 22.0042 25.1393 21.9342 22.0793C21.8842 19.8793 21.9242 17.6694 21.9142 15.4694C21.9142 15.3794 21.9142 15.2894 21.9142 15.1994C21.9142 14.9794 22.0142 14.9793 22.1742 15.0793C22.3742 15.2093 22.5642 15.3494 22.7742 15.4694C23.9542 16.1694 25.2242 16.5693 26.6042 16.6393C26.8742 16.6493 26.9642 16.5592 26.9642 16.2892C26.9542 15.4492 26.9542 14.6092 26.9642 13.7692C26.9642 13.5492 26.8842 13.4694 26.6642 13.4694C26.1742 13.4594 25.6942 13.3596 25.2442 13.1696C23.2742 12.3696 22.1842 10.8995 21.9442 8.79947C21.9142 8.55947 21.8342 8.48917 21.6042 8.49918C20.8142 8.50918 20.0142 8.49918 19.2242 8.49918C18.7742 8.49918 18.7642 8.4996 18.7642 8.9396C18.7442 11.1696 18.7442 13.3793 18.7442 15.5993Z" fill="white"/>
</svg>
