<svg width="212" height="55" viewBox="0 0 212 55" fill="none" xmlns="http://www.w3.org/2000/svg">
<path d="M109.59 10.709C110.78 10.709 111.73 11.1889 112.56 11.8989C113.39 12.7289 113.75 13.6791 113.75 14.8691V32.3491C113.75 35.3191 113.16 38.059 111.97 40.679C110.9 43.299 109.23 45.5591 107.33 47.5791C105.43 49.4791 103.05 51.029 100.43 52.219C97.8102 53.289 95.0801 53.999 92.1001 53.999C89.1301 53.999 86.2702 53.409 83.6602 52.219C81.0402 51.149 78.7801 49.4791 76.7601 47.5791C74.8601 45.6791 73.3101 43.299 72.1201 40.679C71.0501 38.059 70.3401 35.3291 70.3401 32.3491V14.8691C70.3401 13.6791 70.8202 12.7289 71.5302 11.8989C72.3602 11.0689 73.3101 10.709 74.5001 10.709C75.6901 10.709 76.6401 11.1889 77.4701 11.8989C78.3001 12.6089 78.6602 13.6791 78.6602 14.8691V32.229C78.6602 34.009 79.0201 35.7991 79.7301 37.3391C80.4401 38.8891 81.4001 40.309 82.5801 41.499C83.7701 42.689 85.2001 43.6391 86.7401 44.3491C88.4101 45.0591 90.0701 45.4189 91.9701 45.4189C93.8701 45.4189 95.4201 45.0591 97.0801 44.3491C98.7401 43.6391 100.05 42.679 101.36 41.499C102.67 40.309 103.5 38.8791 104.21 37.3391C104.92 35.7891 105.28 34.009 105.28 32.229H105.16V14.8691C105.16 13.6791 105.64 12.7289 106.35 11.8989C107.45 11.0689 108.52 10.709 109.59 10.709Z" fill="white"/>
<path d="M163 31.8794C163 33.6594 162.88 35.5695 162.41 37.2295C161.93 39.0095 161.34 40.6795 160.63 42.2295C159.8 43.7795 158.85 45.3194 157.66 46.6294C156.47 47.9394 155.16 49.2495 153.62 50.1995C150.41 52.3395 146.96 53.5294 143.15 53.8894C139.34 54.2494 135.66 53.5296 132.21 51.8696C130.54 51.0396 129 50.0894 127.57 48.8994C126.14 47.7094 124.95 46.3996 123.88 44.8596C122.81 43.4296 121.98 41.7696 121.26 40.0996C120.55 38.3196 120.19 36.6495 119.95 34.7495C119.95 34.3895 119.83 34.0394 119.83 33.6794C119.83 33.3194 119.83 32.9696 119.83 32.6096V4.17944C119.83 2.98944 120.19 2.03947 121.02 1.20947C121.85 0.379473 122.8 0.0195312 123.99 0.0195312C125.18 0.0195312 126.13 0.379473 126.96 1.20947C127.79 2.03947 128.15 2.98944 128.15 4.17944V15.2395C130.41 13.5695 132.91 12.2696 135.64 11.5496C138.38 10.7196 141.23 10.5995 144.08 10.9595C146.93 11.3195 149.55 12.1496 152.05 13.5796C154.55 15.0096 156.69 16.7894 158.47 19.1694C159.9 20.9494 160.97 22.9796 161.68 25.1196C162.52 27.3596 162.88 29.4994 163 31.8794ZM152.29 39.9695C154.07 37.4695 154.91 34.6195 154.67 31.5295C154.55 29.8595 154.19 28.3195 153.48 26.7695C152.77 25.3395 151.81 23.9195 150.63 22.7295C150.04 22.2495 149.44 21.7796 148.85 21.2996C148.26 20.9396 147.54 20.4695 146.83 20.2295C145.16 19.3995 143.38 19.1594 141.6 19.1594C139.82 19.1594 138.03 19.5195 136.37 20.2295C134.7 21.0595 133.16 22.0096 131.97 23.3196C130.78 24.6296 129.83 26.1696 129.12 27.8396C128.29 30.0996 128.17 32.4796 128.64 34.8596C129.12 37.2396 130.07 39.3794 131.73 41.1594C132.92 42.5894 134.35 43.6596 136.01 44.3696C136.37 44.6096 136.84 44.8495 137.2 44.9595C137.68 45.0795 138.03 45.3195 138.51 45.4395C138.15 45.3195 137.8 45.1995 137.44 44.9595C137.08 44.8395 136.73 44.5995 136.37 44.4795C139.22 45.7895 142.08 45.9096 145.05 45.0696C146.6 44.7096 148.02 43.9994 149.21 43.1694C150.27 42.3494 151.34 41.2795 152.29 39.9695Z" fill="white"/>
<path d="M207.84 10.709C209.03 10.709 209.98 11.1889 210.81 11.8989C211.64 12.6089 212 13.6791 212 14.8691V32.3491C212 35.3191 211.41 38.059 210.33 40.679C209.26 43.299 207.59 45.5591 205.69 47.5791C203.79 49.4791 201.41 51.029 198.79 52.219C196.17 53.409 193.44 53.999 190.46 53.999C187.48 53.999 184.63 53.409 182.02 52.219C179.4 51.149 177.14 49.4791 175.12 47.5791C173.22 45.6791 171.67 43.299 170.48 40.679C169.41 38.059 168.7 35.3291 168.7 32.3491V14.8691C168.7 13.6791 169.18 12.7289 169.89 11.8989C170.72 11.0689 171.67 10.709 172.86 10.709C174.05 10.709 175 11.1889 175.83 11.8989C176.66 12.6089 177.02 13.6791 177.02 14.8691V32.229C177.02 34.009 177.38 35.7991 178.09 37.3391C178.8 38.8891 179.76 40.309 180.94 41.499C182.13 42.689 183.56 43.6391 185.1 44.3491C186.77 45.0591 188.43 45.4189 190.33 45.4189C192.11 45.4189 193.78 45.0591 195.44 44.3491C197.1 43.6391 198.41 42.679 199.72 41.499C200.91 40.309 201.86 38.8791 202.57 37.3391C203.28 35.7891 203.64 34.009 203.64 32.229H203.52V14.8691C203.52 13.6791 204 12.7289 204.71 11.8989C205.7 11.0689 206.65 10.709 207.84 10.709Z" fill="white"/>
<path d="M109.59 10.709C110.78 10.709 111.73 11.1889 112.56 11.8989C113.39 12.7289 113.75 13.6791 113.75 14.8691V32.3491C113.75 35.3191 113.16 38.059 111.97 40.679C110.9 43.299 109.23 45.5591 107.33 47.5791C105.43 49.4791 103.05 51.029 100.43 52.219C97.8102 53.289 95.0801 53.999 92.1001 53.999C89.1301 53.999 86.2702 53.409 83.6602 52.219C81.0402 51.149 78.7801 49.4791 76.7601 47.5791C74.8601 45.6791 73.3101 43.299 72.1201 40.679C71.0501 38.059 70.3401 35.3291 70.3401 32.3491V14.8691C70.3401 13.6791 70.8202 12.7289 71.5302 11.8989C72.3602 11.0689 73.3101 10.709 74.5001 10.709C75.6901 10.709 76.6401 11.1889 77.4701 11.8989C78.3001 12.6089 78.6602 13.6791 78.6602 14.8691V32.229C78.6602 34.009 79.0201 35.7991 79.7301 37.3391C80.4401 38.8891 81.4001 40.309 82.5801 41.499C83.7701 42.689 85.2001 43.6391 86.7401 44.3491C88.4101 45.0591 90.0701 45.4189 91.9701 45.4189C93.8701 45.4189 95.4201 45.0591 97.0801 44.3491C98.7401 43.6391 100.05 42.679 101.36 41.499C101.84 41.019 102.31 40.549 102.67 39.949C103.15 39.359 103.74 38.399 104.22 37.209C105.05 35.189 105.17 33.2791 105.17 32.0991V14.739C105.17 13.549 105.65 12.599 106.36 11.769C107.45 11.069 108.52 10.709 109.59 10.709Z" fill="white"/>
<path d="M163 31.8794C163 33.6594 162.88 35.5695 162.41 37.2295C161.93 39.0095 161.34 40.6795 160.63 42.2295C159.8 43.7795 158.85 45.3194 157.66 46.6294C156.47 47.9394 155.16 49.2495 153.62 50.1995C150.41 52.3395 146.96 53.5294 143.15 53.8894C139.34 54.2494 135.66 53.5296 132.21 51.8696C130.54 51.0396 129 50.0894 127.57 48.8994C126.14 47.7094 124.95 46.3996 123.88 44.8596C122.81 43.4296 121.98 41.7696 121.26 40.0996C120.55 38.3196 120.19 36.6495 119.95 34.7495C119.95 34.3895 119.83 34.0394 119.83 33.6794C119.83 33.3194 119.83 32.9696 119.83 32.6096V4.17944C119.83 2.98944 120.19 2.03947 121.02 1.20947C121.85 0.379473 122.8 0.0195312 123.99 0.0195312C125.18 0.0195312 126.13 0.379473 126.96 1.20947C127.79 2.03947 128.15 2.98944 128.15 4.17944V15.2395C130.41 13.5695 132.91 12.2696 135.64 11.5496C138.38 10.7196 141.23 10.5995 144.08 10.9595C146.93 11.3195 149.55 12.1496 152.05 13.5796C154.55 15.0096 156.69 16.7894 158.47 19.1694C159.9 20.9494 160.97 22.9796 161.68 25.1196C162.52 27.3596 162.88 29.4994 163 31.8794ZM154.08 36.3994C154.79 34.1394 154.67 32.3595 154.56 31.5195C154.44 29.8495 154.08 28.3095 153.37 26.7595C152.66 25.3295 151.7 23.9095 150.52 22.7195C149.93 22.2395 149.33 21.7696 148.74 21.2896C148.15 20.9296 147.43 20.4595 146.72 20.2195C145.05 19.3895 143.27 19.1494 141.49 19.1494C139.71 19.1494 137.92 19.5095 136.26 20.2195C134.59 21.0495 133.05 21.9996 131.86 23.3096C130.67 24.6196 129.72 26.1596 129.01 27.8296C128.18 30.0896 128.06 32.4696 128.53 34.8496C129.01 37.2296 129.96 39.3694 131.62 41.1494C132.81 42.5794 134.12 43.4094 134.47 43.6494C135.3 44.1294 135.9 44.4796 136.25 44.5996C136.96 44.9596 138.39 45.5494 140.29 45.6694C141.84 45.7894 143.38 45.6695 144.93 45.1895C146.48 44.8295 147.9 44.1196 149.09 43.2896C149.09 43.2896 149.92 42.6995 150.64 41.9795C153.13 39.4895 154.08 36.3994 154.08 36.3994Z" fill="white"/>
<path d="M207.84 10.709C209.03 10.709 209.98 11.1889 210.81 11.8989C211.64 12.7289 212 13.6791 212 14.8691V32.3491C212 35.3191 211.41 38.059 210.33 40.679C209.26 43.299 207.59 45.5591 205.69 47.5791C203.79 49.4791 201.41 51.029 198.79 52.219C196.17 53.409 193.44 53.999 190.46 53.999C187.48 53.999 184.63 53.409 182.02 52.219C179.4 51.149 177.14 49.4791 175.12 47.5791C173.22 45.6791 171.67 43.299 170.48 40.679C169.41 38.059 168.7 35.3291 168.7 32.3491V14.8691C168.7 13.6791 169.18 12.7289 169.89 11.8989C170.72 11.0689 171.67 10.709 172.86 10.709C174.05 10.709 175 11.1889 175.83 11.8989C176.66 12.6089 177.02 13.6791 177.02 14.8691V32.229C177.02 34.009 177.38 35.7991 178.09 37.3391C178.8 38.8891 179.76 40.309 180.94 41.499C182.13 42.689 183.56 43.6391 185.1 44.3491C186.77 45.0591 188.43 45.4189 190.33 45.4189C192.11 45.4189 193.78 45.0591 195.44 44.3491C197.1 43.6391 198.41 42.679 199.72 41.499C200.2 41.019 200.67 40.549 201.03 39.949C201.51 39.359 202.1 38.399 202.58 37.209C203.41 35.189 203.53 33.2791 203.53 32.0991V14.739C203.53 13.549 204.01 12.599 204.72 11.769C205.7 11.069 206.65 10.709 207.84 10.709Z" fill="white"/>
<path d="M52.2703 27.8398C52.2703 28.4298 52.2703 29.0298 52.1503 29.6198C51.6703 35.6898 49.4103 41.2796 45.1303 45.9096C42.8703 48.4096 40.2503 50.4298 37.2803 51.8598C35.9703 52.4498 34.5402 53.0496 33.2402 53.4096C34.6702 52.2196 35.5002 50.6696 35.9802 48.8896C36.5702 46.2696 35.9802 43.8897 34.0802 41.7497C33.8402 41.5097 33.6003 41.2698 33.3703 41.0398C33.2503 40.9198 33.1303 40.7996 33.0103 40.6796C33.3703 38.2996 33.3703 35.6798 33.1303 32.8298C33.0103 31.0498 32.7703 29.2598 32.6503 27.5998C32.5303 26.1698 32.2903 24.5097 32.1703 22.9597C32.0503 21.2897 31.9303 19.6298 32.1703 17.8498C32.6503 14.3998 34.9102 11.8997 38.2402 11.1897C42.8802 10.1197 47.5203 12.2598 49.6603 16.5398C51.4303 20.1098 52.3903 23.9098 52.2703 27.8398Z" fill="white"/>
<path d="M21.9401 32.71C19.4401 30.81 17.5401 29.26 15.8701 27.48C12.5401 23.91 9.92015 20.3401 7.90015 16.5401C7.42015 15.7101 6.95008 14.5201 6.71008 13.3301C6.71008 13.2101 6.71009 12.9701 6.59009 12.8501C6.59009 12.6101 6.59008 12.49 6.83008 12.26C9.80008 10.12 13.4901 10.1199 16.2301 12.1399C17.9001 13.3299 18.9702 14.9901 19.6802 17.3701C20.5102 20.3401 21.1101 23.4399 21.5801 26.6499C21.8201 28.7899 21.9401 30.81 21.9401 32.71Z" fill="white"/>
<path d="M32.5201 51.3892C31.2101 52.8192 29.5502 53.7693 27.4102 54.0093C26.5802 54.1293 25.7402 54.1292 24.9102 54.1292C21.5802 54.1292 18.2502 53.2993 15.0402 51.7493C10.6402 49.6093 7.07009 46.2793 4.34009 41.5193C2.32009 38.1893 1.13014 34.4993 0.650144 30.5793C0.0601444 25.9393 0.530127 21.7794 2.32013 18.0894C2.91013 16.6594 3.75007 15.3493 4.82007 14.2793C5.18007 15.7093 5.89011 17.0194 6.49011 18.0894C9.11011 22.7294 12.2001 26.7692 15.8901 30.2192C18.3901 32.5992 21.3602 34.8593 24.8102 36.9993C27.9002 38.8993 30.2802 40.6894 32.3002 42.5894C33.3702 43.6594 34.0801 44.8492 34.3201 46.1592C34.4301 48.0592 33.9501 49.8392 32.5201 51.3892Z" fill="white"/>
<path d="M11.71 8.92969C9.20996 8.92969 7.31006 6.90967 7.31006 4.40967C7.31006 1.90967 9.32996 0.00976562 11.83 0.00976562C14.21 0.00976562 16.23 2.02979 16.23 4.52979C16.11 7.01978 14.09 8.92969 11.71 8.92969Z" fill="white"/>
<path d="M45.2502 4.53023C45.2502 7.03023 43.2302 8.93013 40.8502 8.93013C38.4702 8.93013 36.4502 6.91023 36.4502 4.53023C36.4502 2.15023 38.4702 0.130084 40.8502 0.130084C43.3502 0.0100836 45.2502 2.03023 45.2502 4.53023Z" fill="white"/>
</svg>
