<svg width="35" height="35" viewBox="0 0 35 35" fill="none" xmlns="http://www.w3.org/2000/svg">
<g clip-path="url(#clip0_1245_320)">
<path d="M17.4944 34.9997C7.85487 35.0614 -0.0427408 27.0638 -0.000318168 17.4238C0.0421045 7.86391 7.92659 -0.0440038 17.592 0.000184293C27.134 0.0439348 35.0701 7.92647 34.9992 17.6408C34.9297 27.1903 27.0653 35.0693 17.4944 34.9997ZM28.2667 17.2117C28.2868 15.6139 27.9357 14.097 27.2359 12.6664C24.6451 7.37084 18.2773 5.28219 13.0449 8.0026C7.91304 10.6705 5.95504 17.0813 8.72126 22.18C8.83103 22.3821 8.82622 22.5602 8.77024 22.7636C8.3447 24.3076 7.92222 25.8528 7.49843 27.3977C7.39303 27.7818 7.40921 27.801 7.78664 27.7022C9.35716 27.2896 10.9285 26.8801 12.4964 26.4579C12.754 26.3883 12.9679 26.408 13.2102 26.5283C15.2237 27.5302 17.3497 27.8671 19.5675 27.4974C24.75 26.6333 28.3253 22.1043 28.2667 17.2117Z" fill="white"/>
<path d="M26.5959 17.2326C26.5915 21.5683 23.3591 25.2827 19.0823 25.8598C17.0893 26.1284 15.2161 25.7671 13.4763 24.7542C13.2341 24.6129 13.0232 24.5696 12.7447 24.6497C11.8822 24.8964 11.0093 25.1042 10.1429 25.3383C9.88266 25.4087 9.80394 25.3536 9.88004 25.0824C10.1197 24.2292 10.3388 23.3704 10.5881 22.5203C10.6633 22.264 10.6157 22.0728 10.4783 21.8545C9.43569 20.2016 8.98829 18.3833 9.18159 16.4499C9.4733 13.5383 10.8842 11.2703 13.3858 9.74561C17.7558 7.08208 23.4955 8.80235 25.7242 13.4119C26.3077 14.6172 26.5959 15.893 26.5959 17.2326ZM20.5946 22.1918C20.6969 22.1918 20.7993 22.1961 20.9012 22.1909C22.065 22.1323 22.9703 21.3185 23.1255 20.1884C23.157 19.9587 23.1758 19.7199 22.9178 19.5947C22.2233 19.2583 21.527 18.9249 20.8277 18.5981C20.6033 18.4931 20.4166 18.5526 20.2609 18.7556C20.0191 19.071 19.7632 19.3755 19.5109 19.6827C19.3595 19.8669 19.1815 19.9404 18.9397 19.8463C17.3661 19.2325 16.1708 18.1812 15.3132 16.7339C15.1938 16.5326 15.213 16.3519 15.3609 16.1695C15.5463 15.9398 15.7173 15.6987 15.8979 15.4651C16.0829 15.2262 16.1052 14.9773 15.985 14.6986C15.751 14.1565 15.5332 13.6075 15.3014 13.0645C15.2012 12.83 15.154 12.5281 14.8431 12.4796C14.4184 12.4131 13.9723 12.3321 13.608 12.6576C13.1405 13.0759 12.8116 13.5821 12.6769 14.2077C12.5015 15.0241 12.6393 15.7989 13.0289 16.516C14.1144 18.5141 15.5852 20.16 17.6018 21.2516C18.5299 21.7529 19.5135 22.1458 20.5946 22.1918Z" fill="white"/>
</g>
<defs>
<clipPath id="clip0_1245_320">
<rect width="35" height="35" fill="white"/>
</clipPath>
</defs>
</svg>
