<svg width="129" height="34" viewBox="0 0 129 34" fill="none" xmlns="http://www.w3.org/2000/svg">
<path d="M7.71998 21.5602H20.3L19.5 25.7102H0.22998L0.769974 22.9002L15.49 5.64024H5.04998L5.84998 1.49023H23.11L22.57 4.30024L7.71998 21.5602Z" fill="white"/>
<path d="M42.2401 9.24949L39.3001 25.6995H35.0201L35.1501 24.6295C33.8101 25.5695 32.2101 26.0995 30.4701 26.0995C26.3201 26.0995 22.8401 23.0195 22.8401 18.3395C22.8401 15.1295 24.5801 11.9195 27.3901 10.1795C28.7301 9.50949 30.3301 8.97949 32.0701 8.97949C33.9401 8.97949 35.8201 9.64949 37.5601 10.8495L37.8301 9.23949H42.2401V9.24949ZM36.4901 14.7295C35.4201 13.6595 33.9501 13.1195 32.3401 13.1195C29.6601 13.1195 27.3901 15.2595 27.3901 18.0695C27.3901 20.3395 28.8601 21.9495 31.4001 21.9495C32.8701 21.9495 34.3401 21.2795 35.5501 20.0795L36.4901 14.7295Z" fill="white"/>
<path d="M42.9099 33.9996L47.4599 9.24961H51.7399L51.6099 10.3196C52.9499 9.37961 54.5499 8.84961 56.2899 8.84961C60.4399 8.84961 63.9199 11.9296 63.9199 16.6096C63.9199 19.8196 62.1799 23.0296 59.3699 24.7696C58.0299 25.4396 56.4299 25.9696 54.6899 25.9696C52.8199 25.9696 51.0799 25.2996 49.4699 24.3596L47.7299 33.9896H42.9099V33.9996ZM49.9999 20.2196C51.0699 21.2896 52.5399 21.8296 54.1499 21.8296C56.8299 21.8296 59.0999 19.6896 59.0999 16.8796C59.0999 14.6096 57.6299 12.9996 55.0899 12.9996C53.6199 12.9996 52.1499 13.6696 50.9399 14.8696L49.9999 20.2196Z" fill="white"/>
<path d="M73.6801 9.24992L70.7401 25.7099H66.0601L69.0001 9.24992H73.6801ZM72.4801 0.419922C74.2201 0.419922 75.5601 1.61993 75.5601 3.22993C75.5601 4.83993 74.2201 6.03992 72.4801 6.03992C70.7401 6.03992 69.4001 4.83993 69.4001 3.22993C69.4001 1.61993 70.7401 0.419922 72.4801 0.419922Z" fill="white"/>
<path d="M95.4901 9.25024L92.5501 25.7102H88.2701L88.4001 24.6402C87.0601 25.5802 85.4601 26.1102 83.7201 26.1102C79.5701 26.1102 76.0901 23.0302 76.0901 18.3502C76.0901 15.1402 77.8301 11.9302 80.6401 10.1902C81.9801 9.52024 83.5801 8.99023 85.3201 8.99023C87.1901 8.99023 89.0701 9.66024 90.8101 10.8602L91.0801 9.25024H95.4901ZM89.7401 14.7302C88.6701 13.6602 87.2001 13.1202 85.5901 13.1202C82.9101 13.1202 80.6401 15.2602 80.6401 18.0702C80.6401 20.3402 82.1101 21.9502 84.6501 21.9502C86.1201 21.9502 87.5901 21.2802 88.8001 20.0802L89.7401 14.7302Z" fill="white"/>
<path d="M104.99 9.24985L104.72 10.4498C106.06 9.50984 107.8 8.83984 109.54 8.83984C111.95 8.83984 114.09 10.0398 115.43 11.7798C116.23 12.9798 116.77 14.4598 116.77 16.0598C116.77 16.9998 116.64 17.9298 116.5 18.9998L115.3 25.5598H110.62L111.96 18.1998C112.09 17.3998 112.23 16.8598 112.23 16.1898C112.23 14.3198 111.16 12.8498 109.02 12.8498C107.41 12.8498 105.68 13.7898 104.47 14.9898L102.6 25.5598H97.9199L100.86 9.09985L104.99 9.24985Z" fill="white"/>
<path d="M128.14 22.2299C127.74 22.0999 127.47 21.8299 127.07 21.6899C126.8 21.5599 126.53 21.5599 126.4 21.5599C126.94 21.0199 127.2 20.4899 127.07 19.8199C126.4 19.8199 125.73 20.0899 125.33 20.6199C125.33 19.9499 125.2 19.2799 124.66 18.8799C124.12 19.4199 123.99 19.9499 123.99 20.6199C123.45 20.0799 122.92 19.8199 122.25 19.9499C122.25 20.6199 122.52 21.1499 123.05 21.5599C122.25 21.5599 121.71 21.6899 121.31 22.2299C121.85 22.7699 122.51 22.8999 123.05 22.8999C122.51 23.4399 122.25 23.9699 122.25 24.6399C122.92 24.6399 123.45 24.3699 123.99 23.8399C123.86 24.6399 124.12 25.3099 124.66 25.7099C125.2 25.3099 125.33 24.7699 125.33 23.9699C125.87 24.5099 126.4 24.7699 127.2 24.7699C127.07 24.3699 127.07 23.9699 126.8 23.6999C126.67 23.4299 126.53 23.2999 126.4 23.1599C127.07 23.0299 127.6 22.7599 128.14 22.2299Z" fill="#2C5DF3"/>
</svg>
