<svg width="129" height="35" viewBox="0 0 129 35" fill="none" xmlns="http://www.w3.org/2000/svg">
<path d="M7.81934 22.03H20.3993L19.5993 26.18H0.319336L0.859337 23.37L15.5793 6.10996H5.13934L5.93934 1.95996H23.1993L22.6593 4.76996L7.81934 22.03Z" fill="white"/>
<path d="M42.3394 9.71996L39.3995 26.18H35.1195L35.2495 25.11C33.9095 26.05 32.3095 26.58 30.5695 26.58C26.4195 26.58 22.9395 23.5 22.9395 18.82C22.9395 15.61 24.6794 12.4 27.4894 10.66C28.8294 9.98997 30.4294 9.45996 32.1694 9.45996C34.0394 9.45996 35.9195 10.13 37.6595 11.33L37.9295 9.71996H42.3394ZM36.5795 15.2C35.5095 14.13 34.0395 13.59 32.4295 13.59C29.7495 13.59 27.4795 15.73 27.4795 18.54C27.4795 20.81 28.9494 22.42 31.4894 22.42C32.9594 22.42 34.4295 21.75 35.6395 20.55L36.5795 15.2Z" fill="white"/>
<path d="M43.0098 34.4693L47.5598 9.71934H51.8398L51.7098 10.7893C53.0498 9.84934 54.6498 9.31934 56.3898 9.31934C60.5398 9.31934 64.0198 12.3993 64.0198 17.0793C64.0198 20.2893 62.2798 23.4993 59.4698 25.2393C58.1298 25.9093 56.5298 26.4393 54.7898 26.4393C52.9198 26.4393 51.1798 25.7693 49.5698 24.8293L47.8298 34.4593H43.0098V34.4693ZM50.0998 20.6893C51.1698 21.7593 52.6398 22.2993 54.2498 22.2993C56.9298 22.2993 59.1998 20.1593 59.1998 17.3493C59.1998 15.0793 57.7298 13.4693 55.1898 13.4693C53.7198 13.4693 52.2498 14.1393 51.0398 15.3393L50.0998 20.6893Z" fill="white"/>
<path d="M73.7792 9.71965L70.8392 26.1796H66.1592L69.0992 9.71965H73.7792ZM72.5692 0.889648C74.3092 0.889648 75.6492 2.08965 75.6492 3.69965C75.6492 5.30965 74.3092 6.50965 72.5692 6.50965C70.8292 6.50965 69.4892 5.30965 69.4892 3.69965C69.4992 2.08965 70.8292 0.889648 72.5692 0.889648Z" fill="white"/>
<path d="M95.5894 9.71996L92.6494 26.18H88.3694L88.4995 25.11C87.1595 26.05 85.5595 26.58 83.8195 26.58C79.6695 26.58 76.1895 23.5 76.1895 18.82C76.1895 15.61 77.9295 12.4 80.7395 10.66C82.0795 9.98997 83.6794 9.45996 85.4194 9.45996C87.2894 9.45996 89.1695 10.13 90.9095 11.33L91.1794 9.71996H95.5894ZM89.8295 15.2C88.7595 14.13 87.2894 13.59 85.6794 13.59C82.9994 13.59 80.7294 15.73 80.7294 18.54C80.7294 20.81 82.1995 22.42 84.7395 22.42C86.2095 22.42 87.6795 21.75 88.8895 20.55L89.8295 15.2Z" fill="white"/>
<path d="M105.089 9.71957L104.819 10.9196C106.159 9.97957 107.899 9.30957 109.639 9.30957C112.049 9.30957 114.189 10.5096 115.529 12.2496C116.329 13.4496 116.869 14.9296 116.869 16.5296C116.869 17.4696 116.739 18.3996 116.599 19.4696L115.399 26.0296H110.719L112.059 18.6696C112.189 17.8696 112.329 17.3296 112.329 16.6596C112.329 14.7896 111.259 13.3196 109.119 13.3196C107.509 13.3196 105.779 14.2596 104.569 15.4596L102.699 26.0296H97.999L100.939 9.56957L105.089 9.71957Z" fill="white"/>
<path d="M128.228 22.6996C127.828 22.5696 127.558 22.2996 127.158 22.1596C126.888 22.0296 126.618 22.0296 126.488 22.0296C127.028 21.4896 127.288 20.9596 127.158 20.2896C126.488 20.2896 125.818 20.5596 125.418 21.0896C125.418 20.4196 125.288 19.7496 124.748 19.3496C124.208 19.8896 124.078 20.4196 124.078 21.0896C123.538 20.5496 123.008 20.2896 122.338 20.4196C122.338 21.0896 122.608 21.6196 123.138 22.0296C122.338 22.0296 121.798 22.1596 121.398 22.6996C121.938 23.2396 122.598 23.3696 123.138 23.3696C122.598 23.9096 122.338 24.4396 122.338 25.1096C123.008 25.1096 123.538 24.8396 124.078 24.3096C123.948 25.1096 124.208 25.7796 124.748 26.1796C125.288 25.7796 125.418 25.2396 125.418 24.4396C125.958 24.9796 126.488 25.2396 127.288 25.2396C127.158 24.8396 127.158 24.4396 126.888 24.1696C126.758 23.8996 126.618 23.7696 126.488 23.6296C127.158 23.4996 127.698 23.2296 128.228 22.6996Z" fill="#E85F30"/>
</svg>
