<svg width="129" height="35" viewBox="0 0 129 35" fill="none" xmlns="http://www.w3.org/2000/svg">
<path d="M8.34961 22.0309H20.9296L20.1296 26.1809H0.849609L1.38961 23.3709L16.1096 6.11094H5.66961L6.46961 1.96094H23.7296L23.1896 4.77094L8.34961 22.0309Z" fill="#F94074"/>
<path d="M42.8697 9.72094L39.9297 26.1809H35.6497L35.7797 25.1109C34.4397 26.0509 32.8397 26.5809 31.0997 26.5809C26.9497 26.5809 23.4697 23.5009 23.4697 18.8209C23.4697 15.6109 25.2097 12.4009 28.0197 10.6609C29.3597 9.99094 30.9597 9.46094 32.6997 9.46094C34.5697 9.46094 36.4497 10.1309 38.1897 11.3309L38.4597 9.72094H42.8697ZM37.1097 15.2009C36.0397 14.1309 34.5697 13.5909 32.9597 13.5909C30.2797 13.5909 28.0097 15.7309 28.0097 18.5409C28.0097 20.8109 29.4797 22.4209 32.0197 22.4209C33.4897 22.4209 34.9597 21.7509 36.1697 20.5509L37.1097 15.2009Z" fill="#F94074"/>
<path d="M43.5293 34.4703L48.0793 9.72031H52.3593L52.2293 10.7903C53.5693 9.85031 55.1693 9.32031 56.9093 9.32031C61.0593 9.32031 64.5393 12.4003 64.5393 17.0803C64.5393 20.2903 62.7993 23.5003 59.9893 25.2403C58.6493 25.9103 57.0493 26.4403 55.3093 26.4403C53.4393 26.4403 51.6993 25.7703 50.0893 24.8303L48.3493 34.4603H43.5293V34.4703ZM50.6293 20.6903C51.6993 21.7603 53.1693 22.3003 54.7793 22.3003C57.4593 22.3003 59.7293 20.1603 59.7293 17.3503C59.7293 15.0803 58.2593 13.4703 55.7193 13.4703C54.2493 13.4703 52.7793 14.1403 51.5693 15.3403L50.6293 20.6903Z" fill="#F94074"/>
<path d="M74.3094 9.72063L71.3694 26.1806H66.6895L69.6295 9.72063H74.3094ZM73.0995 0.890625C74.8395 0.890625 76.1794 2.09062 76.1794 3.70062C76.1794 5.31062 74.8395 6.51063 73.0995 6.51063C71.3595 6.51063 70.0195 5.31062 70.0195 3.70062C70.0295 2.09062 71.3595 0.890625 73.0995 0.890625Z" fill="#F94074"/>
<path d="M96.1197 9.72094L93.1797 26.1809H88.8997L89.0297 25.1109C87.6897 26.0509 86.0897 26.5809 84.3497 26.5809C80.1997 26.5809 76.7197 23.5009 76.7197 18.8209C76.7197 15.6109 78.4597 12.4009 81.2697 10.6609C82.6097 9.99094 84.2097 9.46094 85.9497 9.46094C87.8197 9.46094 89.6997 10.1309 91.4397 11.3309L91.7097 9.72094H96.1197ZM90.3597 15.2009C89.2897 14.1309 87.8197 13.5909 86.2097 13.5909C83.5297 13.5909 81.2597 15.7309 81.2597 18.5409C81.2597 20.8109 82.7297 22.4209 85.2697 22.4209C86.7397 22.4209 88.2097 21.7509 89.4197 20.5509L90.3597 15.2009Z" fill="#F94074"/>
<path d="M105.62 9.72055L105.35 10.9205C106.69 9.98055 108.43 9.31055 110.17 9.31055C112.58 9.31055 114.72 10.5105 116.06 12.2505C116.86 13.4505 117.4 14.9305 117.4 16.5305C117.4 17.4705 117.27 18.4006 117.13 19.4706L115.93 26.0305H111.25L112.59 18.6705C112.72 17.8705 112.86 17.3306 112.86 16.6606C112.86 14.7906 111.79 13.3205 109.65 13.3205C108.04 13.3205 106.31 14.2605 105.1 15.4605L103.23 26.0305H98.5498L101.49 9.57055L105.62 9.72055Z" fill="#F94074"/>
<path d="M128.76 22.7006C128.36 22.5706 128.09 22.3006 127.69 22.1606C127.42 22.0306 127.15 22.0306 127.02 22.0306C127.56 21.4906 127.82 20.9606 127.69 20.2906C127.02 20.2906 126.35 20.5606 125.95 21.0906C125.95 20.4206 125.82 19.7506 125.28 19.3506C124.74 19.8906 124.61 20.4206 124.61 21.0906C124.07 20.5506 123.54 20.2906 122.87 20.4206C122.87 21.0906 123.14 21.6206 123.67 22.0306C122.87 22.0306 122.33 22.1606 121.93 22.7006C122.47 23.2406 123.13 23.3706 123.67 23.3706C123.13 23.9106 122.87 24.4406 122.87 25.1106C123.54 25.1106 124.07 24.8406 124.61 24.3106C124.48 25.1106 124.74 25.7806 125.28 26.1806C125.82 25.7806 125.95 25.2406 125.95 24.4406C126.49 24.9806 127.02 25.2406 127.82 25.2406C127.69 24.8406 127.69 24.4406 127.42 24.1706C127.29 23.9006 127.15 23.7706 127.02 23.6306C127.69 23.5006 128.23 23.2306 128.76 22.7006Z" fill="#F94074"/>
</svg>
