<svg width="129" height="35" viewBox="0 0 129 35" fill="none" xmlns="http://www.w3.org/2000/svg">
<path d="M8.1902 22.03H20.7702L19.9702 26.18H0.700195L1.2402 23.37L15.9602 6.10996H5.5202L6.3202 1.95996H23.5802L23.0402 4.76996L8.1902 22.03Z" fill="#2B0B57"/>
<path d="M42.7101 9.71996L39.7701 26.18H35.4901L35.6201 25.11C34.2801 26.05 32.6801 26.58 30.9401 26.58C26.7901 26.58 23.3101 23.5 23.3101 18.82C23.3101 15.61 25.0501 12.4 27.8601 10.66C29.2001 9.98997 30.8001 9.45996 32.5401 9.45996C34.4101 9.45996 36.2901 10.13 38.0301 11.33L38.3001 9.71996H42.7101ZM36.9601 15.2C35.8901 14.13 34.4201 13.59 32.8101 13.59C30.1301 13.59 27.8601 15.73 27.8601 18.54C27.8601 20.81 29.3301 22.42 31.8701 22.42C33.3401 22.42 34.8101 21.75 36.0201 20.55L36.9601 15.2Z" fill="#2B0B57"/>
<path d="M43.3804 34.4693L47.9304 9.71934H52.2104L52.0804 10.7893C53.4204 9.84934 55.0204 9.31934 56.7604 9.31934C60.9104 9.31934 64.3904 12.3993 64.3904 17.0793C64.3904 20.2893 62.6504 23.4993 59.8404 25.2393C58.5004 25.9093 56.9004 26.4393 55.1604 26.4393C53.2904 26.4393 51.5504 25.7693 49.9404 24.8293L48.2004 34.4593H43.3804V34.4693ZM50.4704 20.6893C51.5404 21.7593 53.0104 22.2993 54.6204 22.2993C57.3004 22.2993 59.5704 20.1593 59.5704 17.3493C59.5704 15.0793 58.1004 13.4693 55.5604 13.4693C54.0904 13.4693 52.6204 14.1393 51.4104 15.3393L50.4704 20.6893Z" fill="#2B0B57"/>
<path d="M74.16 9.71965L71.22 26.1796H66.54L69.48 9.71965C69.47 9.71965 74.16 9.71965 74.16 9.71965ZM72.95 0.889648C74.69 0.889648 76.03 2.08965 76.03 3.69965C76.03 5.30965 74.69 6.50965 72.95 6.50965C71.21 6.50965 69.87 5.30965 69.87 3.69965C69.87 2.08965 71.21 0.889648 72.95 0.889648Z" fill="#2B0B57"/>
<path d="M95.9601 9.71996L93.0201 26.18H88.7401L88.8701 25.11C87.5301 26.05 85.9301 26.58 84.1901 26.58C80.0401 26.58 76.5601 23.5 76.5601 18.82C76.5601 15.61 78.3001 12.4 81.1101 10.66C82.4501 9.98997 84.0501 9.45996 85.7901 9.45996C87.6601 9.45996 89.5401 10.13 91.2801 11.33L91.5501 9.71996H95.9601ZM90.2101 15.2C89.1401 14.13 87.6701 13.59 86.0601 13.59C83.3801 13.59 81.1101 15.73 81.1101 18.54C81.1101 20.81 82.5801 22.42 85.1201 22.42C86.5901 22.42 88.0601 21.75 89.2701 20.55L90.2101 15.2Z" fill="#2B0B57"/>
<path d="M105.46 9.71957L105.19 10.9196C106.53 9.97957 108.27 9.30957 110.01 9.30957C112.42 9.30957 114.56 10.5096 115.9 12.2496C116.7 13.4496 117.24 14.9296 117.24 16.5296C117.24 17.4696 117.11 18.3996 116.97 19.4696L115.77 26.0296H111.09L112.43 18.6696C112.56 17.8696 112.7 17.3296 112.7 16.6596C112.7 14.7896 111.63 13.3196 109.49 13.3196C107.88 13.3196 106.15 14.2596 104.94 15.4596L103.07 26.0296H98.3901L101.33 9.56957L105.46 9.71957Z" fill="#2B0B57"/>
<path d="M128.61 22.6996C128.21 22.5696 127.94 22.2996 127.54 22.1596C127.27 22.0296 127 22.0296 126.87 22.0296C127.41 21.4896 127.67 20.9596 127.54 20.2896C126.87 20.2896 126.2 20.5596 125.8 21.0896C125.8 20.4196 125.67 19.7496 125.13 19.3496C124.59 19.8896 124.46 20.4196 124.46 21.0896C123.92 20.5496 123.39 20.2896 122.72 20.4196C122.72 21.0896 122.99 21.6196 123.52 22.0296C122.72 22.0296 122.18 22.1596 121.78 22.6996C122.32 23.2396 122.98 23.3696 123.52 23.3696C122.98 23.9096 122.72 24.4396 122.72 25.1096C123.39 25.1096 123.92 24.8396 124.46 24.3096C124.33 25.1096 124.59 25.7796 125.13 26.1796C125.67 25.7796 125.8 25.2396 125.8 24.4396C126.34 24.9796 126.87 25.2396 127.67 25.2396C127.54 24.8396 127.54 24.4396 127.27 24.1696C127.14 23.8996 127 23.7696 126.87 23.6296C127.54 23.4996 128.08 23.2296 128.61 22.6996Z" fill="#2B0B57"/>
</svg>
