<svg width="34" height="34" viewBox="0 0 34 34" fill="none" xmlns="http://www.w3.org/2000/svg">
<path d="M30.75 5.66039H2.41003C1.09003 5.66039 0.0300293 4.60039 0.0300293 3.28039C0.0300293 1.96039 1.09003 0.900391 2.41003 0.900391H30.75C32.07 0.900391 33.13 1.96039 33.13 3.28039C33.14 4.60039 32.08 5.66039 30.75 5.66039Z" fill="white"/>
<path d="M30.75 15.0608H2.41003C1.09003 15.0608 0.0300293 14.0008 0.0300293 12.6808C0.0300293 11.3608 1.09003 10.3008 2.41003 10.3008H30.75C32.07 10.3008 33.13 11.3608 33.13 12.6808C33.14 14.0008 32.08 15.0608 30.75 15.0608Z" fill="white"/>
<path d="M30.75 24.6008H2.41003C1.09003 24.6008 0.0300293 23.5408 0.0300293 22.2208C0.0300293 20.9008 1.09003 19.8408 2.41003 19.8408H30.75C32.07 19.8408 33.13 20.9008 33.13 22.2208C33.14 23.5408 32.08 24.6008 30.75 24.6008Z" fill="white"/>
<path d="M30.75 34.0002H2.41003C1.09003 34.0002 0.0300293 32.9402 0.0300293 31.6202C0.0300293 30.3002 1.09003 29.2402 2.41003 29.2402H30.75C32.07 29.2402 33.13 30.3002 33.13 31.6202C33.14 32.9402 32.08 34.0002 30.75 34.0002Z" fill="white"/>
</svg>
