<svg width="34" height="34" viewBox="0 0 34 34" fill="none" xmlns="http://www.w3.org/2000/svg">
<path d="M17 0.350586C7.89 0.350586 0.5 7.74059 0.5 16.8506C0.5 25.9606 7.89 33.3506 17 33.3506C26.11 33.3506 33.5 25.9606 33.5 16.8506C33.5 7.74059 26.11 0.350586 17 0.350586ZM18.03 17.9106C19.61 20.3106 20.42 22.7204 20.22 25.3604C20.02 28.0204 19.1 30.3607 17.16 32.2407C13.37 29.5707 12.8 23.0406 15.93 17.9106C9.99999 20.9206 4.42 20.4405 1.62 16.7705C4.24 13.1605 9.52998 12.7103 15.73 15.5503C12.94 9.29029 13.33 4.42068 16.86 1.45068C20.54 3.70068 21.07 9.59039 18.15 15.6504C23.5 12.5804 29.01 13.0105 32.37 16.7705C30.16 20.4105 24.04 20.9606 18.03 17.9106Z" fill="#F8C332"/>
</svg>
