<svg width="34" height="34" viewBox="0 0 34 34" fill="none" xmlns="http://www.w3.org/2000/svg">
<path d="M33.7899 16.3799C32.0499 15.5099 30.4999 14.44 28.7599 13.77C27.4999 13.38 26.3399 13.1899 25.0799 13.1899C27.7899 10.7699 29.0499 7.87012 28.4699 4.87012C24.8899 5.16012 22.1799 6.42005 20.1499 8.55005C20.4399 4.87005 19.1799 1.86988 16.6699 0.129883C14.3499 2.83988 13.2799 5.73989 13.3799 8.63989C10.9599 5.82989 7.86987 4.47991 4.86987 5.15991C5.15987 8.73991 6.41988 11.45 8.54988 13.48C4.86988 13.29 1.77988 14.45 0.129883 16.96C2.93988 19.28 5.73988 20.3499 8.73988 20.1499C5.73988 22.6699 4.47988 25.37 5.05988 28.47C8.53988 28.66 11.1499 27.5 13.6699 24.21C13.1899 28.27 14.1499 31.27 16.8599 33.21C19.3799 30.98 20.3399 28.3701 19.9599 24.6001C22.2799 27.4101 25.3799 28.7601 28.9599 28.3701C28.3799 26.5301 27.9899 24.69 27.2199 23.05C26.6399 21.89 25.9599 20.9199 25.0899 20.1499C28.6699 20.2499 31.6599 18.9899 33.7899 16.3799Z" fill="black"/>
</svg>
