<svg width="34" height="34" viewBox="0 0 34 34" fill="none" xmlns="http://www.w3.org/2000/svg">
<path d="M33.7899 16.46C32.0499 15.59 30.4999 14.53 28.7599 13.85C27.4999 13.46 26.3399 13.27 25.0799 13.27C27.7899 10.85 29.0499 7.94995 28.4699 4.94995C24.8899 5.23995 22.1799 6.5 20.1499 8.63C20.4399 4.95 19.1799 1.94996 16.6699 0.209961C14.3499 2.91996 13.2799 5.81997 13.3799 8.71997C10.9599 5.90997 7.86987 4.55999 4.86987 5.23999C5.15987 8.81999 6.41988 11.5301 8.54988 13.5601C4.86988 13.3701 1.77988 14.53 0.129883 17.04C2.93988 19.36 5.73988 20.43 8.73988 20.23C5.73988 22.75 4.47988 25.45 5.05988 28.55C8.53988 28.74 11.1499 27.58 13.6699 24.29C13.1899 28.35 14.1499 31.35 16.8599 33.29C19.3799 31.06 20.3399 28.4501 19.9599 24.6801C22.2799 27.4901 25.3799 28.84 28.9599 28.45C28.3799 26.61 27.9899 24.77 27.2199 23.13C26.6399 21.97 25.9599 21 25.0899 20.23C28.6699 20.33 31.6599 19.07 33.7899 16.46Z" fill="#2B0B57"/>
</svg>
