<svg width="33" height="34" viewBox="0 0 33 34" fill="none" xmlns="http://www.w3.org/2000/svg">
<path d="M16.64 15.0305C18.28 5.96045 25.19 -0.319552 32.99 0.150448C32.75 6.12045 30.4 10.9504 25.6 14.1904C20.12 17.8904 14.26 18.1404 8.50999 14.8704C3.05999 11.7604 0.4 6.75042 0 0.370418C6.27 -1.20958 12.79 4.53045 16.64 15.0305Z" fill="white"/>
<path d="M16.64 30.9905C18.22 21.9505 25.04 15.7504 33 16.0704C32.72 22.2104 30.31 27.1705 25.26 30.3605C19.23 34.1705 13 34.0505 7.11005 29.9105C2.48005 26.6605 0.230039 21.9605 0.0400391 16.1205C7.64004 15.7105 12.84 20.3905 16.64 30.9905Z" fill="white"/>
</svg>
