<svg width="33" height="34" viewBox="0 0 33 34" fill="none" xmlns="http://www.w3.org/2000/svg">
<path d="M32.99 17.0599C31.29 16.1699 29.7499 15.0999 28.0399 14.5099C26.8299 14.0899 25.63 13.9099 24.45 13.9299C27.09 11.5599 28.3299 8.62989 27.8199 5.60989C24.2899 5.87989 21.6 7.13989 19.62 9.29989C19.86 5.67989 18.6999 2.66988 16.1899 0.879883C13.8699 3.59988 12.85 6.43989 12.98 9.39989C10.57 6.61989 7.55 5.26989 4.63 5.90989C4.91001 9.44989 6.15991 12.1599 8.27991 14.1499C4.65991 13.9299 1.62 15.1199 0 17.6399C2.74 19.9999 5.57992 21.0099 8.53992 20.8599C5.59992 23.3199 4.39 26.0599 4.87 29.1199C8.3 29.3499 10.9199 28.1199 13.3199 24.9099C12.8199 28.9899 13.8399 31.9799 16.4399 33.8699C18.9399 31.6699 19.91 29.0199 19.49 25.2699C21.8 28.0399 24.82 29.3999 28.36 29.0199C27.79 27.1799 27.44 25.3299 26.65 23.6899C26.1 22.5399 25.3799 21.5799 24.5499 20.7499C27.9299 20.9399 30.85 19.7299 32.99 17.0599Z" fill="#5A56ED"/>
</svg>
