<svg width="34" height="34" viewBox="0 0 34 34" fill="none" xmlns="http://www.w3.org/2000/svg">
<path d="M31.1801 13.8301H20.29V2.94006C20.29 1.38006 19.03 0.120117 17.47 0.120117C15.91 0.120117 14.65 1.38006 14.65 2.94006V13.8301H3.76001C2.20001 13.8301 0.939941 15.0901 0.939941 16.6501C0.939941 18.2101 2.20001 19.4701 3.76001 19.4701H14.65V30.3601C14.65 31.9201 15.91 33.1802 17.47 33.1802C19.03 33.1802 20.29 31.9201 20.29 30.3601V19.4701H31.1801C32.7401 19.4701 34 18.2101 34 16.6501C34 15.0901 32.7401 13.8301 31.1801 13.8301Z" fill="white"/>
</svg>
