<svg width="35" height="35" viewBox="0 0 35 35" fill="none" xmlns="http://www.w3.org/2000/svg">
<path d="M17.2299 0.360352C7.82995 0.360352 0.209961 7.98037 0.209961 17.3804C0.209961 26.7804 7.82995 34.4004 17.2299 34.4004C26.6299 34.4004 34.25 26.7804 34.25 17.3804C34.25 7.99037 26.6299 0.360352 17.2299 0.360352ZM18.3 18.4603C19.94 20.9503 20.79 23.4504 20.58 26.1504C20.37 28.8604 19.44 31.3504 17.45 33.2704C13.53 30.4904 12.96 23.8003 16.17 18.4503C10.04 21.5803 4.26995 21.0904 1.41995 17.3104C4.12995 13.6104 9.60996 13.1104 16.02 16.0304C13.17 9.5504 13.53 4.56037 17.16 1.50037C20.94 3.85037 21.5099 9.91041 18.5099 16.1704C24.0699 12.9604 29.6899 13.4604 33.1799 17.3104C30.8299 21.0904 24.49 21.5903 18.3 18.4603Z" fill="white"/>
</svg>
