<svg width="43" height="43" viewBox="0 0 43 43" fill="none" xmlns="http://www.w3.org/2000/svg">
<path d="M31.35 25.5001C34.2 23.5701 37.8 22.1501 42.16 21.2301C37.97 20.5601 34.45 19.2201 31.43 17.2101C32.1 13.3501 33.69 10.0001 35.96 6.82013C32.52 9.00013 29.09 10.5901 25.4 11.2601C23.14 8.08013 21.8 4.47012 21.13 0.620117C20.29 4.56012 18.87 8.16011 16.86 11.1801C13.59 10.5101 10.16 9.08011 6.54999 6.74011C8.89999 10.2601 10.32 13.7001 10.99 17.0501C8.13999 18.9801 4.62001 20.4901 0.26001 21.4101C4.62001 22.2501 8.13999 23.7601 10.99 25.6801C10.24 29.3701 8.63999 32.8901 6.29999 36.4901C9.81999 34.1401 13.34 32.5501 16.94 31.8001C18.95 34.9001 20.29 38.5001 21.13 42.6101C21.97 38.5001 23.31 34.8201 25.32 31.7101C28.84 32.3801 32.44 33.8901 36.22 36.4001C33.61 32.7901 32.02 29.1901 31.35 25.5001Z" fill="white"/>
</svg>
